<?xml version="1.0" encoding="utf-8"?>
<!-- Generator: Adobe Illustrator 24.2.1, SVG Export Plug-In . SVG Version: 6.00 Build 0)  -->
<svg version="1.1" id="Camada_1" xmlns="http://www.w3.org/2000/svg" xmlns:xlink="http://www.w3.org/1999/xlink" x="0px" y="0px"
	 viewBox="0 0 428.6 175.5" style="enable-background:new 0 0 428.6 175.5;" xml:space="preserve">
<style type="text/css">
	.st0{fill:#FFFFFF;}
	.st1{fill:#47A4FE;}
</style>
<path class="st0" d="M158.5,74.4c0-7.5,3.6-11.6,10.2-11.6c5.6,0,9.1,3.1,9.5,8.6h-5.1c-0.4-2.9-1.9-4.5-4.4-4.5
	c-3.2,0-4.9,2.6-4.9,7.5s1.7,7.4,4.9,7.4c2.5,0,4-1.6,4.4-4.5h5.1c-0.4,5.5-3.8,8.6-9.5,8.6C162.2,85.9,158.5,81.8,158.5,74.4z
	 M196.8,74.3v11.2h-4.6V75.3c0-2-0.9-3-2.8-3c-1.8-0.1-3.4,1.3-3.5,3.1c0,0.2,0,0.3,0,0.5v9.7h-4.6V62.1h4.6V69l-1,1.4l-0.3,1.4h0.4
	c1.1-2.1,3.1-3.1,6-3.1C194.7,68.7,196.8,70.7,196.8,74.3z M215,75v10.6h-3.6v-1.3l0.4-1.6h-0.4c-1.1,2.1-3.2,3.2-6.1,3.2
	c-3.6,0-5.7-1.8-5.7-4.6s1.8-4.6,6.2-5.1l4.8-0.6v-0.8c0-2-1-3-3.1-3s-3,0.9-3,2.8h-4.5c0-3.9,2.8-6,7.6-6
	C212.5,68.7,215,70.8,215,75z M210.4,79.2v-0.9l-3.9,0.4c-1.7,0.2-2.5,0.9-2.5,2.1c0,1.3,0.8,2,2.4,2
	C208.8,82.8,210.4,81.3,210.4,79.2L210.4,79.2z M222.5,85.6l-5.7-15.9V69h4.6l3.4,10.1l0.2,1.8h0.5l0.2-1.8l3.4-10.1h4.6v0.7
	L228,85.6H222.5z M250.5,78h-11.2c0.1,3,1.3,4.5,3.5,4.5c1.5,0.2,2.9-0.8,3.2-2.3h4.4c-0.5,3.5-3.3,5.7-7.9,5.7c-5.2,0-8-3.1-8-8.5
	s3.1-8.7,8.3-8.7c5,0,7.7,2.9,7.7,8.4L250.5,78z M239.4,75.3h6.5c-0.3-2.4-1.4-3.6-3.2-3.6S239.7,73,239.4,75.3L239.4,75.3z
	 M253.8,79v-3.7h9.7V79H253.8z M267.7,85.6V63.1h7.5l4.2,14.9l0.3,1.8h0.6l0.2-1.8l4.2-14.9h7.3v22.5h-4.4l0.2-15.3v-1.9h-0.7
	l-0.3,1.7l-4.6,15.5h-5l-4.6-15.5l-0.3-1.7h-0.7v1.9l0.3,15.3H267.7z M311.5,78h-11.2c0.1,3,1.3,4.5,3.5,4.5
	c1.5,0.2,2.9-0.8,3.2-2.3h4.4c-0.5,3.5-3.3,5.7-7.9,5.7c-5.2,0-8-3.1-8-8.5s3.1-8.7,8.3-8.7c5,0,7.6,2.9,7.6,8.4L311.5,78z
	 M300.4,75.3h6.5c-0.3-2.4-1.4-3.6-3.2-3.6S300.7,73,300.4,75.3L300.4,75.3z M313.8,80.7h4.3c0.3,1.5,1.5,2.3,3.4,2.3
	s2.9-0.7,2.9-1.9c0-1-0.9-1.6-2.6-2l-3.1-0.6c-3-0.6-4.7-2.3-4.7-4.5c0-3.2,2.8-5.3,7.4-5.3s7,1.8,7.2,5.1h-4.3
	c-0.2-1.5-1.3-2.2-3.2-2.2c-1.7,0-2.8,0.7-2.8,1.7c0,0.9,0.9,1.5,2.6,1.8l3,0.5c3.4,0.7,5,2.2,5,4.7c0,3.4-3,5.6-7.7,5.6
	S314.1,84.2,313.8,80.7z M342.6,81.9v3.6c-1.2,0.3-2.3,0.4-3.5,0.4c-3.8,0-5.7-1.8-5.7-5.4v-8.3h-2.7V69h2.7v-4.4h4.6V69h4.5v3.1
	H338v7.6c0,1.6,0.9,2.4,2.6,2.4C341.3,82.1,341.9,82,342.6,81.9z M356.4,69.1v4.3c-0.7-0.2-1.4-0.3-2.2-0.4c-2.6,0-4.2,1.8-4.2,4.7
	v7.9h-4.6V69h3.6v1.2l-0.4,2h0.4c0.6-2.2,2.7-3.7,5-3.6C354.9,68.6,355.7,68.7,356.4,69.1z M373.5,75v10.6h-3.6v-1.3l0.4-1.6h-0.5
	c-1.1,2.1-3.2,3.2-6.1,3.2c-3.6,0-5.7-1.8-5.7-4.6s1.8-4.6,6.2-5.1l4.8-0.6v-0.8c0-2-1-3-3.1-3s-3,0.9-3,2.8h-4.5c0-3.9,2.8-6,7.6-6
	C371,68.7,373.5,70.8,373.5,75z M368.9,79.2v-0.9l-3.9,0.4c-1.7,0.2-2.5,0.9-2.5,2.1c0,1.3,0.8,2,2.4,2
	C367.2,82.8,368.9,81.3,368.9,79.2L368.9,79.2z"/>
<path class="st1" d="M165.4,103.8v-1.1h5.7v6.9h-1.2v-1.4l0.1-1.2h-0.2c-0.6,1.8-2.4,3-4.3,2.8c-1.6,0.1-3.1-0.6-4.1-1.9
	c-1-1.5-1.6-3.3-1.5-5.1c0-4.4,2.1-7,5.8-7c2.8-0.2,5.2,1.9,5.4,4.6h-1.6c-0.2-1.9-1.9-3.4-3.8-3.3c-2.7,0-4.2,2.1-4.2,5.7
	s1.5,5.6,4.2,5.6c2.5,0,3.7-1.7,3.8-4.6L165.4,103.8z"/>
<path class="st1" d="M188.9,96l4.7,13.4v0.2H192l-1.1-3h-6.5l-1,3h-1.5v-0.2l4.7-13.4H188.9z M184.9,105.3h5.6l-2.6-7.4l-0.1-0.6
	h-0.3l-0.1,0.6L184.9,105.3z"/>
<path class="st1" d="M204.6,109.6V96h2.6l3.8,11.2l0.1,0.6h0.3l0.1-0.6l3.9-11.2h2.5v13.6h-1.4l0.1-11.4v-0.7h-0.3l-0.1,0.6l-4,11.4
	h-1.8l-4-11.4l-0.1-0.6H206v0.6l0.1,11.4H204.6z"/>
<path class="st1" d="M230.2,109.6V96h1.6v13.6L230.2,109.6z"/>
<path class="st1" d="M252.7,97.3h-7v5.3h6.1v1.3h-6.1v5.6h-1.6V96h8.6L252.7,97.3z"/>
<path class="st1" d="M264,109.6V96h1.5v13.6L264,109.6z"/>
<path class="st1" d="M277.4,102.8c0-4.4,2.1-7,5.8-7c2.8-0.2,5.2,1.8,5.4,4.6c0,0,0,0.1,0,0.1h-1.6c-0.2-1.9-1.8-3.4-3.8-3.3
	c-2.7,0-4.1,2.1-4.1,5.6s1.5,5.6,4.2,5.6c2,0.1,3.7-1.4,3.8-3.3h1.6c-0.2,2.8-2.5,4.9-5.3,4.7c0,0-0.1,0-0.1,0
	C279.4,109.7,277.4,107.2,277.4,102.8z"/>
<path class="st1" d="M305.9,96l4.7,13.4v0.2h-1.5l-1.1-3h-6.5l-1,3H299v-0.2l4.6-13.4H305.9z M301.9,105.3h5.6l-2.5-7.4l-0.1-0.6
	h-0.3l-0.1,0.6L301.9,105.3z"/>
<path class="st1" d="M330,105h1.6c-0.2,2.7-2.4,4.8-5.1,4.7l-0.8,1.1h0.5c1.2,0,1.8,0.6,1.8,1.5c0,1.1-0.9,1.7-2.5,1.7
	c-0.6,0-1.2-0.1-1.8-0.2v-0.8c0.6,0.2,1.2,0.3,1.8,0.3c1,0,1.5-0.3,1.5-0.9s-0.4-0.7-1.1-0.7h-1.5v-0.2l1.1-1.7
	c-3.4-0.3-5.2-2.8-5.2-7c0-4.4,2.1-7,5.8-7c2.8-0.2,5.2,1.8,5.4,4.6c0,0,0,0.1,0,0.1H330c-0.2-1.9-1.8-3.4-3.8-3.3
	c-2.7,0-4.1,2.1-4.1,5.6s1.5,5.6,4.2,5.6C328.2,108.3,329.8,106.9,330,105z"/>
<path class="st1" d="M349,96l4.7,13.4v0.2h-1.5l-1.1-3h-6.5l-1,3H342v-0.2l4.7-13.4H349z M344.8,94.6c-0.1-0.9,0.5-1.8,1.4-2
	c0.1,0,0.2,0,0.3,0c0.5,0,1,0.1,1.4,0.4c0.3,0.3,0.7,0.5,1.2,0.6c0.6,0,0.9-0.4,0.9-1.1h0.9c0.1,1.2-0.5,2.1-1.7,2.1
	c-0.6,0-1.1-0.2-1.5-0.5c-0.3-0.3-0.7-0.5-1.2-0.6c-0.6,0-0.9,0.5-0.9,1.1L344.8,94.6z M345,105.3h5.6l-2.6-7.4l-0.1-0.6h-0.3
	l-0.1,0.6L345,105.3z"/>
<path class="st1" d="M369.4,109.7c-3.8,0-5.9-2.6-5.9-7s2.1-7,5.9-7s5.8,2.6,5.8,7S373.2,109.7,369.4,109.7z M373.6,102.7
	c0-3.6-1.4-5.6-4.2-5.6s-4.2,2.1-4.2,5.6s1.5,5.6,4.2,5.6S373.6,106.3,373.6,102.7L373.6,102.7z"/>
<path class="st1" d="M121.6,87L88.5,35.2L53.4,90.1h22.1l32.1,50.2L141.7,87H121.6z M79.6,90.3h7V76.6c-4.3-1.1-6.9-5.4-5.8-9.7
	s5.4-6.9,9.7-5.8s6.9,5.4,5.8,9.7c-0.7,2.9-3,5.1-5.8,5.8v13.7h12.7v27c0.1,1.1,1,1.9,2.1,1.8c1-0.1,1.7-0.8,1.8-1.8v-1.2h6.1v-7.5
	h-4.7v-1.9h3.3v-2h-2v-1.3h2v-2H107V90.3h28.7l-28,43.9L79.6,90.3z"/>
<path class="st1" d="M93.2,68.8c0-2.6-2.1-4.7-4.7-4.7c-2.6,0-4.7,2.1-4.7,4.7c0,2.6,2.1,4.7,4.7,4.7C91.1,73.5,93.2,71.4,93.2,68.8
	z"/>
</svg>
