<?xml version="1.0" encoding="utf-8"?>
<!-- Generator: Adobe Illustrator 24.2.1, SVG Export Plug-In . SVG Version: 6.00 Build 0)  -->
<svg version="1.1" id="Layer_1" xmlns="http://www.w3.org/2000/svg" xmlns:xlink="http://www.w3.org/1999/xlink" x="0px" y="0px"
	 viewBox="0 0 595.3 841.9" style="enable-background:new 0 0 595.3 841.9;" xml:space="preserve">
<style type="text/css">
	.st0{fill:#00A3FF;}
</style>
<g>
	<polygon class="st0" points="326.9,505.8 326.9,505.8 327,505.4 	"/>
	<path class="st0" d="M317.7,385.9l-1.7-0.5l-3.1-3.5l-0.7-4.3l-3.3-0.7l-3.7-1l-2.3-1.5l-1.8-1l-3.5,2.4l0.1-2.2l-2,0.6l-2.7,1.6
		l-2.2,0.2l-4.6,2l-4.6,1.3l-2.1,6.4l-2.1,0.8l1.4,1.9l0.4,2.6l-2.6,1.1l3.2,1.6l-1.9,1.9l3.3,3l2.4,4.1l2.8,0l2.9,1.2l4.3,1.7
		l1.7-0.4l2,2.6l1.6-2.1l3.3-0.1l1.1,1.1l2.2-1.7l3-0.9l3.1-3.5l1.5-0.8l4-3.3l0.4-4.9l-0.9-3.5L317.7,385.9z M290.5,390.8l7.1-7.2
		l7.2,7.2l-7.2,7.3L290.5,390.8z"/>
	<polygon class="st0" points="303.4,528.4 303.5,528.4 303.5,527.9 	"/>
	<path class="st0" d="M180.2,265.8c5.1,9.1,12.2,16.4,20.8,23.1C201.9,283.5,190.1,270.5,180.2,265.8z"/>
	<path class="st0" d="M464.5,302.1c-27.9,12.2-55.9,24.5-83.8,36.7c-4.3,1.9-4.2,4.4-1.8,7.9c21.7-6.3,81.6-36.5,91.7-46.5
		C468,301,466.2,301.4,464.5,302.1z"/>
	<path class="st0" d="M395.8,290.9c-0.4-0.5-0.9-0.9-1.3-1.4c-1.2,0.5-2.6,0.7-3.4,1.6c-7.8,7.7-15.5,15.5-23.1,23.4
		c-2.7,2.8-0.7,4.6,2.5,7.1C379.1,311.1,387.4,301,395.8,290.9z"/>
	<path class="st0" d="M423.9,261.3c-10,4.3-23.2,18.8-21.9,24.1C410.3,278.1,417.6,271.2,423.9,261.3z"/>
	<path class="st0" d="M393.1,178.8c-18.9,37.6-38.6,74.9-53.2,114.5c-0.5,1.3-1.1,2.6-1.1,4c0,1,0.7,2.5,1.5,2.8
		c0.1,0.1,0.3,0.1,0.4,0.1c0.8,0,1.9-0.6,2.5-1.1c0.9-1,1.4-2.4,2-3.6c18.1-36.5,34.6-73.7,48.1-112.2c0.7-2,1.4-4.1,2.1-6.1
		c-0.3-0.1-0.5-0.2-0.8-0.3C394,177.4,393.5,178.1,393.1,178.8z"/>
	<path class="st0" d="M212.7,295.5c-1.2-1.2-3-1.7-4.5-2.6c-0.3,0.3-0.6,0.7-0.9,1c0.9,1.4,1.6,2.8,2.6,4.1
		c6.5,7.9,13,15.8,19.7,23.5c0.8,1,2.9,1.9,4.1,1.9c0.3,0,0.5,0,0.7-0.2c2.5-1.6,2.1-3.8-0.1-6C227,310.1,220,302.7,212.7,295.5z"/>
	<path class="st0" d="M468.3,358.6c-0.7,0.2-1,1.8-1.5,2.8c0.8,0.4,1.9,1.4,2.6,1.4c0.1,0,0.1,0,0.2,0c4.6-2,9.1-4.2,13.6-6.4
		c-0.2-0.6-0.5-1.3-0.7-1.9C477.6,355.8,472.9,357.1,468.3,358.6z"/>
	<path class="st0" d="M223.1,341.2c-27-11.7-54-23.7-81-35.5c-2.4-1.1-5-1.8-8.7-3.1c10.4,10.3,70.2,40.4,91.9,46.7
		C228.2,345.4,227.4,343.1,223.1,341.2z"/>
	<path class="st0" d="M214.7,188.4c-1.9-3.9-4-7.6-5.9-11.5c-0.4,0.1-0.8,0.3-1.1,0.4c0.6,1.9,1.2,3.9,1.9,5.8
		c13.5,38.3,29.9,75.4,47.9,111.7c1,2.1,3.9,5.3,4.8,5.3c0,0,0.1,0,0.1,0c4.2-1.8,1.2-5,0.3-7.4
		C249.6,256.6,231.6,222.7,214.7,188.4z"/>
	<path class="st0" d="M204.4,377.1c-17.9-4.2-35.7-8.8-53.6-13.1c-0.6-0.1-1.1-0.2-1.7-0.2c-1.6,0-3.3,0.3-5.4,0.4
		c4,5.2,50,19.5,65.1,21C210.1,380.7,209.2,378.2,204.4,377.1z"/>
	<path class="st0" d="M451.6,363.5c-0.8,0-1.5,0.1-2.2,0.2c-17.9,4.3-35.7,8.8-53.6,13.1c-4.6,1.1-6,3.5-4.5,8
		c0.7,0.1,1,0.2,1.3,0.2c0.1,0,0.1,0,0.2,0c19.5-5.4,39.1-10.8,58.6-16.4c1.7-0.5,3.1-2.1,4.7-3.2c-0.2-0.6-0.3-1.2-0.5-1.8
		C454.3,363.7,452.9,363.5,451.6,363.5z"/>
	<path class="st0" d="M299.5,219.6c-0.7,0.1-1.4,0.1-2.1,0.2c-0.9,19.7-1.8,39.4-2.7,59.4c6.2-1,7-1.4,6.9-6
		c-0.1-16.2-0.5-32.3-0.9-48.5C300.7,223,300,221.3,299.5,219.6z"/>
	<g>
		<g>
			<path class="st0" d="M212.8,664.6v-14.2h7.5v1.5h-5.8v4.1h5.8v1.6h-5.8v5.4h5.8v1.6L212.8,664.6L212.8,664.6z"/>
		</g>
		<g>
			<path class="st0" d="M232.3,656.7c0.9,0.4,1.6,0.9,2.1,1.6c0.5,0.7,0.7,1.4,0.7,2.3c0,1.3-0.4,2.4-1.3,3.2
				c-0.8,0.8-1.9,1.2-3.3,1.2c-1.1,0-2.1-0.3-2.8-0.9c-0.8-0.6-1.3-1.4-1.5-2.4l1.5-0.8c0.2,0.9,0.5,1.5,1,2
				c0.5,0.4,1.1,0.7,1.8,0.7c0.8,0,1.5-0.2,2.1-0.7c0.5-0.5,0.8-1.1,0.8-1.9c0-0.6-0.2-1.2-0.5-1.7c-0.4-0.5-0.9-0.9-1.7-1.2
				l-1.7-0.7c-0.9-0.4-1.6-0.9-2.1-1.5c-0.5-0.6-0.7-1.4-0.7-2.2c0-1,0.4-1.8,1.1-2.5c0.8-0.7,1.7-1,2.9-1c0.9,0,1.6,0.2,2.2,0.5
				c0.6,0.4,1.1,0.9,1.5,1.6l-1.4,0.9c-0.3-0.5-0.7-1-1.1-1.2c-0.4-0.3-0.8-0.4-1.3-0.4c-0.6,0-1.2,0.2-1.6,0.6
				c-0.4,0.4-0.6,0.9-0.6,1.5c0,0.5,0.2,0.9,0.5,1.3c0.3,0.4,0.8,0.7,1.4,1L232.3,656.7z"/>
		</g>
		<g>
			<path class="st0" d="M252.8,653.8c-0.7-0.7-1.4-1.3-2.2-1.6c-0.8-0.4-1.6-0.5-2.6-0.5c-0.8,0-1.5,0.2-2.2,0.5
				c-0.7,0.3-1.3,0.7-1.9,1.3c-0.5,0.6-0.9,1.2-1.2,1.9c-0.3,0.7-0.4,1.5-0.4,2.3c0,0.7,0.1,1.3,0.2,1.8c0.2,0.6,0.4,1.1,0.7,1.5
				c0.6,0.8,1.3,1.4,2.1,1.9c0.8,0.4,1.7,0.7,2.7,0.7c0.9,0,1.7-0.2,2.5-0.6c0.8-0.4,1.5-0.9,2.1-1.7v2.2c-0.7,0.5-1.5,0.9-2.3,1.2
				c-0.8,0.3-1.7,0.4-2.5,0.4c-0.8,0-1.5-0.1-2.2-0.3c-0.7-0.2-1.4-0.6-2-1c-1-0.7-1.8-1.6-2.4-2.7c-0.6-1-0.8-2.2-0.8-3.5
				c0-1.1,0.2-2.1,0.6-3s0.9-1.7,1.7-2.4c0.7-0.7,1.5-1.2,2.4-1.6c0.9-0.3,1.8-0.5,2.9-0.5c0.8,0,1.6,0.1,2.4,0.4
				c0.8,0.2,1.5,0.6,2.3,1.2L252.8,653.8L252.8,653.8z"/>
		</g>
		<g>
			<path class="st0" d="M264.2,649.8l6.5,14.8h-1.8l-1.8-4.4h-5.6l-1.8,4.4h-1.8L264.2,649.8z M264.2,653.6l-2.3,5.2h4.5
				L264.2,653.6z"/>
		</g>
		<g>
			<path class="st0" d="M277.8,658.2v6.4h-1.6v-14.2h3c1,0,1.8,0.1,2.3,0.2c0.5,0.1,0.9,0.3,1.3,0.5c0.5,0.3,0.8,0.8,1.1,1.3
				c0.3,0.6,0.4,1.2,0.4,1.9c0,0.7-0.1,1.3-0.4,1.9c-0.3,0.6-0.6,1-1.1,1.3c-0.4,0.3-0.8,0.4-1.3,0.6c-0.5,0.1-1.3,0.2-2.3,0.2h-0.5
				L277.8,658.2L277.8,658.2z M277.8,656.7h0.9c1.5,0,2.4-0.2,2.9-0.5c0.5-0.3,0.8-0.9,0.8-1.8c0-0.9-0.3-1.5-0.8-1.9
				c-0.5-0.4-1.5-0.6-2.9-0.6h-0.9L277.8,656.7L277.8,656.7z"/>
		</g>
		<g>
			<path class="st0" d="M290.2,664.6v-14.2h7.5v1.5h-5.8v4.1h5.8v1.6h-5.8v5.4h5.8v1.6L290.2,664.6L290.2,664.6z"/>
		</g>
		<g>
			<path class="st0" d="M322.2,657.3h5.9v0.5c0,2.2-0.6,4-1.9,5.3c-1.3,1.3-3,1.9-5.2,1.9c-0.7,0-1.3-0.1-1.9-0.2
				c-0.6-0.1-1.2-0.4-1.7-0.6c-1.2-0.6-2.1-1.5-2.7-2.7c-0.6-1.1-1-2.4-1-3.9c0-1.2,0.2-2.3,0.6-3.2c0.4-1,1-1.8,1.7-2.5
				c0.6-0.6,1.4-1.1,2.2-1.4c0.8-0.3,1.8-0.5,2.8-0.5c1.4,0,2.5,0.2,3.6,0.7c1,0.5,1.8,1.2,2.5,2.2l-1.4,1.1
				c-0.5-0.9-1.1-1.5-1.9-1.9c-0.8-0.4-1.6-0.6-2.7-0.6c-1.7,0-3,0.6-4,1.7c-1,1.1-1.5,2.6-1.5,4.4c0,1.7,0.5,3.1,1.6,4.2
				c1,1.1,2.4,1.6,4,1.6c1.4,0,2.6-0.4,3.6-1.3c0.9-0.9,1.5-2,1.6-3.4h-4.1L322.2,657.3L322.2,657.3z"/>
		</g>
		<g>
			<path class="st0" d="M339,649.8l6.5,14.8h-1.8l-1.8-4.4h-5.6l-1.8,4.4h-1.8L339,649.8z M339,653.6l-2.3,5.2h4.5L339,653.6z"/>
		</g>
		<g>
			<path class="st0" d="M357.6,665.2l-4.4-10.2l-1.8,9.7h-1.7l2.9-14.8l5,11.8l5-11.8l2.9,14.8h-1.6l-1.8-9.7L357.6,665.2z"/>
		</g>
		<g>
			<path class="st0" d="M371.6,664.6v-14.2h7.5v1.5h-5.8v4.1h5.8v1.6h-5.8v5.4h5.8v1.6L371.6,664.6L371.6,664.6z"/>
		</g>
	</g>
	<path class="st0" d="M423.9,261.3c-6.3,9.9-13.6,16.8-21.9,24.1C400.7,280.1,413.9,265.6,423.9,261.3z M391.1,291
		c-7.8,7.7-15.5,15.5-23.1,23.4c-2.7,2.8-0.7,4.6,2.5,7.1c8.6-10.4,17-20.5,25.3-30.7c-0.4-0.5-0.9-0.9-1.3-1.4
		C393.4,290,391.9,290.2,391.1,291z M340.3,300.1c0.1,0.1,0.3,0.1,0.4,0.1c0.8,0,1.9-0.6,2.5-1.1c0.9-1,1.4-2.4,2-3.6
		c18.1-36.5,34.6-73.7,48.1-112.2c0.7-2,1.4-4.1,2.1-6.1c-0.3-0.1-0.5-0.2-0.8-0.3c-0.5,0.7-1,1.3-1.4,2.1
		c-18.9,37.6-38.6,74.9-53.2,114.5c-0.5,1.3-1.1,2.6-1.1,4C338.8,298.3,339.5,299.7,340.3,300.1z M257.4,294.9
		c1,2.1,3.9,5.3,4.8,5.3c0,0,0.1,0,0.1,0c4.2-1.8,1.2-5,0.3-7.4c-13-36.1-31-70-47.9-104.4c-1.9-3.9-4-7.6-5.9-11.5
		c-0.4,0.1-0.8,0.3-1.1,0.4c0.6,1.9,1.2,3.9,1.9,5.8C223,221.4,239.5,258.5,257.4,294.9z M180.2,265.8c5.1,9.1,12.2,16.4,20.8,23.1
		C201.9,283.5,190.1,270.5,180.2,265.8z M234.3,317.3c-7.2-7.2-14.3-14.6-21.6-21.8c-1.2-1.2-3-1.7-4.5-2.6c-0.3,0.3-0.6,0.7-0.9,1
		c0.9,1.4,1.6,2.8,2.6,4.1c6.5,7.9,13,15.8,19.7,23.5c0.8,1,2.9,1.9,4.1,1.9c0.3,0,0.5,0,0.7-0.2
		C236.9,321.7,236.4,319.4,234.3,317.3z M204.4,377.1c-17.9-4.2-35.7-8.8-53.6-13.1c-0.6-0.1-1.1-0.2-1.7-0.2
		c-1.6,0-3.3,0.3-5.4,0.4c4,5.2,50,19.5,65.1,21C210.1,380.7,209.2,378.2,204.4,377.1z M301.7,273.2c-0.1-16.2-0.5-32.3-0.9-48.5
		c0-1.7-0.8-3.4-1.3-5.1c-0.7,0.1-1.4,0.1-2.1,0.2c-0.9,19.7-1.8,39.4-2.7,59.4C300.9,278.2,301.7,277.8,301.7,273.2z M223.1,341.2
		c-27-11.7-54-23.7-81-35.5c-2.4-1.1-5-1.8-8.7-3.1c10.4,10.3,70.2,40.4,91.9,46.7C228.2,345.4,227.4,343.1,223.1,341.2z
		 M451.6,363.5c-0.8,0-1.5,0.1-2.2,0.2c-17.9,4.3-35.7,8.8-53.6,13.1c-4.6,1.1-6,3.5-4.5,8c0.7,0.1,1,0.2,1.3,0.2c0.1,0,0.1,0,0.2,0
		c19.5-5.4,39.1-10.8,58.6-16.4c1.7-0.5,3.1-2.1,4.7-3.2c-0.2-0.6-0.3-1.2-0.5-1.8C454.3,363.7,452.9,363.5,451.6,363.5z
		 M482.3,354.5c-4.7,1.3-9.4,2.6-14.1,4.1c-0.7,0.2-1,1.8-1.5,2.8c0.8,0.4,1.9,1.4,2.6,1.4c0.1,0,0.1,0,0.2,0
		c4.6-2,9.1-4.2,13.6-6.4C482.8,355.7,482.6,355.1,482.3,354.5z M378.9,346.7c21.7-6.3,81.6-36.5,91.7-46.5
		c-2.6,0.8-4.4,1.2-6.1,1.9c-27.9,12.2-55.9,24.5-83.8,36.7C376.4,340.6,376.5,343.1,378.9,346.7z M228,551.9l-70.1,2.5l35.9-60.3
		l33.3-61.2l34.2-60.6l36.3-61.4l33.7,62.9l33.8,60.9l36.6,59.3l35.9,60.4l-70.3-1.2l-69.6,0.2L228,551.9z M324.4,436l-4.1,3.7
		l27.2,93.7l3.8,11.4l71.5,1.1l-40-69.7l-38.6-70L324.4,436z M283.4,355.7l27.5,0.4l2.2-0.6l-15.5-27.7L283.4,355.7z M267.6,385.9
		l1,2.4l1.4,6.9l1.3,3.4l1.9,5.3l4.1,5l4.9,0.9l1.9,1.3l3.6-0.1l0.5,2l1.5-0.1l1.8-0.8l1.2,1.4l-1,1.1l2.8,12.3l-1.9,1.1l-3-0.9
		l-0.2,0.8l1.3,9.8l-1.1,1.6l2.6-0.8l2,0.7l-1.8,101.8l0.7,1.2l0.9-0.1l0.4,2l2.9,1.8l1.5-1l3.1-0.9l0.4-2.4l1.2-13.2l9.4-1.9
		l-0.8,1.4l0.6,4.1l1.5,1.9l16.9-0.2l0-1.1l1-7.4l-5.2,1l1-1.2l-3-5.8l1.9,0.9l4.1-0.7l-0.3-0.8l1.6-7.5l-5.3,1.7l-0.2-1.8l0.2-5.2
		l3.8-1.1l0.2,0.1l2.4-7.1l-1.9,1.1l-17.4-2.3l-1.5,1.8l1.8,3.9l-1.5,0.5l-9.1,2l-0.4-2.6l-1.2-62.1l2.4-1.3l-1.1-1.8l3.3,2.9
		l1.3-2.1l-0.8-9.8l-0.4,0.4l-3.3,0.7l0.4-2.3l-2.6-11.2l0.8-1.7l1.6-0.9l2.4-0.8l2.6,0.2l0.9-1.5l2-0.1l4.8-0.6l2.1-4.8l3.7,0.2
		l1.4-5.3l3.3-3.3l-2-3.1l3.6-3.6l-2.8-2.4l-0.8-0.9l-0.6-3.9l-4.2-7.8l-3.7-2.3l-4.5-2.3l-4.4-0.6l-1.8-3.8l-2,1.4l-2.9-1.3l-6.3,1
		l-3.8-0.1l-3.2,0.6l-3.3,2.8l-4.1,2.7l-2.8,1.5l-4.4,1.2l0.3,1.2l-2,2.3l-1.5,2.9L267.6,385.9z M171.1,546.4l72.8-1.5l1.9-1.7
		l15.1-51.6l12-52.4l-2.2-3l-18.5-29.3l-39.8,69.2L171.1,546.4z M470.4,596.6c-0.2,0-0.4,0-0.6,0c-0.1,0.1-0.2,0.1-0.2,0.1h-0.3
		l-0.3,0.1l-0.2,0.1l-1.8,0.7l-0.2,0.2l-0.5,0.2c-0.2,0.2-0.4,0.3-0.7,0.4l-0.2,0.2l-0.5,0.3c-0.2,0.3-0.4,0.5-0.7,0.5l-0.3,0.3
		c-0.3,0.4-0.6,0.7-0.9,0.9l-0.1,0.3l-0.5,0.5c-0.3,0.5-0.7,0.9-1,1.2V602v-1.2c-0.1-0.2-0.1-0.3-0.1-0.4v-0.2v-1l-0.1-0.5v-1.5
		h-0.3h-0.4h-0.2h-1.5h-1.1h-0.3h-1.4h-0.2h-1v0.3c0,0.1,0.1,0.1,0.1,0.2c0,0.5,0,0.9,0.1,1.3v1.7c0.1,0.1,0.1,0.2,0.1,0.2v24.9
		c0,1.1,0.1,2.1,0.2,2.8l0.2,0.2l0.2,0.5l0.2,0.2l0.5,0.9l0.2,0.2l0.2,0.2c0.5,0.5,0.8,0.9,1,1.4l0.3,0.2l0.2,0.2l0.3,0.2l0.7,0.7
		c0.5,0.3,0.8,0.6,1,0.9l0.2,0.1l0.2,0.2c0.7,0.4,1.2,0.8,1.6,1.2h0.2v-0.2v-1v-0.7v-1.4v-0.2v-1v-0.3v-0.3v-1.6V629v-1.4v-0.3v-2.5
		v-1.6v-0.5v-0.2v-0.3v-0.3v-0.4v-0.2v-0.3v-0.3v-1.6v-0.2v-1.1v-1v-1.1v-0.9v-0.3V614v-0.2l0.1-0.5c0-0.4,0-0.7,0.1-1v-0.5
		c1.3-2.3,2.9-3.9,4.8-4.8c1.7,0.2,3,0.9,4,2.2c0.3-2,0-3.6-1.1-5c1.1-0.5,2.1-0.7,3.1-0.7c1.5,0,2.9,0.6,4.1,1.8
		c-2.6,1.3-3.3,3.3-1.9,5.9l0.9,0.7c0.3,0,0.5,0,0.8,0c1.8,0,3.3-0.8,4.3-2.4c1.3-3.3,0.5-6.2-2.3-8.8
		C476.5,598,473.6,596.6,470.4,596.6z M502,597.6l-0.3-0.1l-0.2-0.1l-0.2-0.1l-0.3-0.1l-0.2-0.1l-0.2-0.1l-1.4-0.3H499h-0.1h-0.1
		h-0.1h-0.1h-0.1h-0.1h-0.1h-0.1h-0.1h-0.1H498H498h-0.1h-0.1h-0.1h-0.1h-0.1h-0.1h-0.1h-0.1h-0.1h-0.1h-0.1H497h-0.1h-0.1h-0.1
		h-0.1h-0.1h-0.1h-0.1h-0.1h-0.1c-4,0.9-6.9,3.1-8.4,6.5l-0.2,1.4l0.2,1.2c0.2,0.4,0.3,0.7,0.4,1c0.4,0.4,0.6,0.8,0.8,1.1l0.2,0.1
		l0.2,0.2l1.1,0.8c0.4,0.1,0.8,0.2,1.1,0.2c1.1,0,1.8-0.6,2.2-1.7c0.6-1.8,0.1-3.2-1.4-4.2c1.1-0.7,2.2-1,3.2-1
		c1.2,0,2.3,0.4,3.3,1.3c-1.3,1.3-1.8,2.7-1.7,4.3c1.1-0.9,2.3-1.3,3.5-1.3c0.8,0,1.6,0.2,2.4,0.6c1.9,1.6,2.7,3.6,2.5,6h-0.3H505
		h-1.6c-0.1,0-0.2,0-0.2,0c-0.2,0-0.5,0-0.6,0.1h-0.6l-1.8,0.2h-0.4c-0.5,0.1-1,0.2-1.4,0.2l-0.3,0.1l-0.4,0.1h-0.2l-1.1,0.2
		c-0.3,0.1-0.6,0.2-0.9,0.2l-0.3,0.1c-0.4,0.2-0.8,0.3-1.1,0.3c-1,0.4-1.8,0.7-2.4,0.9c-0.3,0.2-0.6,0.3-0.8,0.4l-0.2,0.2
		c-0.3,0.2-0.5,0.3-0.7,0.4c-0.3,0.3-0.7,0.5-1,0.6l-0.4,0.4l-0.2,0.2l-0.2,0.1c-0.1,0.1-0.1,0.2-0.2,0.2c-0.4,0.5-0.9,0.9-1.2,1.2
		l-0.1,0.3l-0.2,0.2l-0.5,0.7l-0.1,0.2l-0.2,0.2l-0.7,1.5l-0.1,0.3l-0.1,0.2v0.2l-0.2,0.7c-0.1,0.3-0.2,0.6-0.2,0.8v0.6l-0.1,0.3
		v2.3c1.1,5.2,4.1,8.1,9,8.7c0.6,0,1.1,0.1,1.7,0.1c4.5,0,8.1-1.7,10.7-5.1h0.3c-0.2,3.3,1,5,3.5,5.2c1.1-0.1,1.9-0.2,2.5-0.4
		C512.8,614.5,509.4,601.8,502,597.6z M501.9,629.9c-1.6,1-3.2,1.5-4.8,1.5c-1.1,0-2.1-0.2-3.2-0.7c-2.8-1.7-3.7-4.2-2.6-7.4
		c0.2-0.9,0.6-1.6,1-2.2l0.5-0.4c0.4-0.5,0.8-0.8,1.2-1l0.2-0.1l0.2-0.1l0.2-0.1l0.2-0.1l0.2-0.1l0.2-0.1c0.3-0.2,0.5-0.3,0.7-0.3
		c0.4-0.2,0.7-0.3,1.1-0.3c0.1,0,0.1-0.1,0.2-0.1c0.4-0.2,0.8-0.2,1.1-0.2c0.6-0.2,1.2-0.4,1.8-0.4c0.3-0.1,0.6-0.2,0.9-0.2h0.3
		l0.3-0.1h0.3h0.2l0.2-0.1h0.3c0.1,0,0.2,0,0.4,0c0.3,0,0.6,0,0.9-0.1h0.7c0.2,0,0.3,0,0.4,0c0.4,0,0.8,0,1.1,0.1
		C506.2,623.7,504.9,627.8,501.9,629.9z M362.9,608.4l0.1,2v0.5v0.4v0.5v0.4v1v0.6v1.4v0.5v0.6v0.5v2.2v0.5v1v0.9v2.5v1v0.9v0.7
		l0,0.8v1.5v0.4v2.1v0.5v1.6v0.6v0.5v0.6v0.5c-2.9-1.3-5.3-3.5-7.2-6.7c-0.1-0.7-0.1-2.2-0.1-4.4l-0.1-0.3l-0.1-20.6
		c0.1-0.4,0-1-0.1-1.6V600c0-0.1,0-0.2-0.1-0.3v-1c-0.1-0.3-0.1-0.7-0.1-1.2l-0.3-1c-0.1-0.5-0.1-1-0.2-1.4v-0.5l-0.7-2.3
		c0-0.1,0-0.2-0.1-0.2l-0.1-0.4l-0.1-0.5c-0.2-0.3-0.5-0.8-0.8-1.5c-1-1.5-2.5-2.6-4.4-3.2c-0.4,0-0.8-0.1-1.2-0.1
		c-5.5,0-8.5,4.7-9,14c0.4-0.5,1-1.1,1.8-1.7c1.6-1.2,3.2-1.7,4.8-1.7c2,0,4.1,0.9,6.2,2.6c1.9,1.2,2.9,3.1,2.7,5.5
		c-0.4,1.8-1.5,3.1-3.5,3.7c-3.2-1-3.6-3-1.1-6c-0.9-0.4-1.7-0.7-2.6-0.7c-1.2,0-2.4,0.4-3.6,1.3c1.2,1,1.8,2.4,1.8,4
		c-0.8-0.7-1.6-1.1-2.4-1.1c-0.6,0-1.3,0.2-2,0.7c-0.7,0.9-1.4,2-1.9,3.5L338,611v2.5v0.4c0,0.1,0,0.2,0.1,0.3v0.5v0.4v0.3v1.4v1.7
		v0.7v0.5v1.7v0.9v1.6v3.8v0.3v0.3v0.7c0,0.7,0,1.5,0.2,2.5v1v0.4v0.5v0.4v1.7c-0.3,0-0.6-0.1-0.9-0.1c-0.6,0-1.3,0.1-2.1,0.2h-0.5
		h-0.4h-0.5h-0.4h-0.7h-0.6v-4.4c0-0.2,0-0.3-0.1-0.4l-0.1-19.3c0-0.7-0.2-1.4-0.6-2c-0.6-1.8-1.6-2.7-2.9-2.7c-0.8,0-1.7,0.3-2.7,1
		c-0.1-1.5,0.6-2.8,1.8-3.9l-0.5-0.5c-0.9-0.6-1.9-0.9-2.9-0.9c-0.9,0-1.8,0.2-2.8,0.7c2.1,2,2,3.9-0.1,5.7
		c-0.3,0.2-0.7,0.2-1.2,0.2c-4.2-2.3-4.6-5.2-1-8.9c2.2-2,4.4-3,6.6-3c2.1,0,4.2,0.9,6.4,2.8c-0.4-7-3.6-11.4-9.5-13.4h-1.6h-0.3
		l-1,0.1c-2.2,0.5-4,1.8-5.5,3.9c-0.3,0.5-0.5,1.1-0.7,1.8c-0.2,0.4-0.4,0.9-0.5,1.5l-0.2,0.4l-0.2,0.9l-0.5,2v0.4l-0.2,0.4l-0.1,2
		v0.4l-0.1,0.3v0.4v0.5v1.6v0.4v0.3l0.1,0.2v0.3v0.4v1.4v1.6v0.5v0.7v0.5v1.6v0.4v0.5v0.7v2.1l0.1,0.7v0.9v0.4v0.4v2.2v0.5v0.4v0.5
		v0.5v1.2v2.4v1v0.9v1l-0.1,1c-0.3,0.4-0.6,0.9-0.8,1.6l-0.3,0.1l-0.3,0.4L310,631c-0.6,0.5-1.2,1.1-1.8,1.9
		c-0.1,0.1-0.2,0.1-0.2,0.3l-0.4,0.1l-0.2,0.3c-0.3,0.2-0.7,0.5-1.2,0.9l-0.4,0.4c-0.3,0.1-0.7,0.3-1,0.6l-0.7,0.2v-1.9v-20.2v-17.7
		c0.1-0.6,0.2-1.3,0.2-2.3l0.2-0.9v-0.7l0.9-3.1l0.1-0.4l0.1-0.4l0.1-0.4l0.1-0.4c2.5-6.1,7.4-9.2,14.5-9.5
		c7.2,0.2,12.2,3.9,15.1,11.2c2-7,6.4-10.8,13-11.4c3.8,0.1,7.1,1.8,9.8,5.2c0.2,0.4,0.5,0.9,0.9,1.3l0.2,0.8l0.1,0.2l0.3,0.2
		l0.1,0.5l0.2,0.5l0.1,0.4l0.3,0.2c0.1,0.6,0.4,1.3,0.7,2.2v0.3l0.2,0.4c0.1,0.7,0.2,1.4,0.5,2.2l0.1,0.9l0.2,0.5l0.1,1.4l0.2,0.3
		c0,0.7,0,1.4,0.2,2.3v0.5v0.9v0.4l0.1,0.4v0.3v0.6v0.5v1.3v0.5v1.4v0.5v0.6v1.7v0.6L362.9,608.4L362.9,608.4z M274.3,616h23.4v3.8
		h-23.4V616z M265.1,611.8v-0.2l-0.1-0.3v-0.2v-0.2c-0.1-0.2-0.1-0.5-0.1-0.7c-0.1-0.3-0.2-0.5-0.2-0.7c-2-8.2-6.9-12.3-14.6-12.3
		c-0.4,0-0.7,0-1.1,0l-0.3,0.1c-0.3,0-0.6,0-0.8,0.1h-0.2l-0.4,0.1l-0.2,0.1h-0.3c-0.1,0.1-0.1,0.1-0.2,0.1l-0.6,0.2l-0.7,0.2
		c-0.3,0.2-0.6,0.3-1,0.3c-0.3,0.2-0.6,0.3-0.9,0.4l-0.2,0.2c-0.4,0.2-0.7,0.4-0.9,0.4l-0.1,0.2l-0.3,0.1c-0.5,0.4-1,0.7-1.4,0.9
		l-0.2,0.2l-0.3,0.2c-0.1,0.1-0.1,0.1-0.2,0.2l-0.2,0.2l-0.2,0.2l-0.2,0.2l-0.5,0.5c-0.3,0.4-0.6,0.8-1,1.1
		c-3.1,4.7-4.5,9.7-4.1,14.9c1.3,10.9,7.4,16.3,18.2,16.3l-0.1,0.4c-0.3,0.7-0.5,1.3-0.6,1.8h0.3l0.3-0.1h0.3h0.2l0.2-0.1h0.2h0.3
		c0.5-0.2,0.9-0.2,1.2-0.2c0.1,0,0.1,0,0.2,0l0.2-0.1l1.5-0.3c8.3-2.4,10.6-6.6,6.8-12.6l-0.2-0.1l-0.1-0.2
		c-0.2-0.2-0.4-0.4-0.5-0.6l-0.6-0.3l-0.5-0.3c-0.4-0.1-0.8-0.1-1.2-0.1c-1.2,0-2.3,0.5-3,1.5c-0.3,1.1,0,1.9,0.9,2.3
		c0.4,0.2,0.9,0.3,1.2,0.3c0.7,0,1.3-0.3,1.8-0.9c0.4,1.1,0.5,2.1,0.2,3l-1.8,0.6c-0.6-0.4-1.2-0.7-1.8-0.7c-0.1,0-0.1,0-0.2,0h0
		h0.1l0.4,1c-1.9,0.4-3.6,0.5-5.2,0.5c-6.9,0-11-3.4-12.3-10.2c-0.1-0.4-0.1-0.7-0.2-1v-0.2v-1h0.7h0.2h0.2h2.5h0.5h0.2h1.1h0.5h0.5
		h0.5h0.4h0.5h0.3h1.4h0.9h0.3h0.4h0.3h0.3h0.3h0.3h0.2h0.4h1.4h0.4h0.2h1.6h0.3h0.2h1.5h1h0.3h1.4h0.2l1-0.1
		c0.6-0.2,1.2-0.3,1.6-0.5l0.8-1l0.2-0.7v-0.3v-0.2v-0.3v-0.2v-1.1v-0.2l-0.1-0.4L265.1,611.8L265.1,611.8z M258.8,612.4l-0.2,0.1
		c-0.9,0.3-1.6,0.5-2.2,0.5h-0.2l-0.9,0.1c-0.2,0-0.3,0-0.5,0c-0.3,0-0.6,0-0.9,0.1h-0.7c-0.5,0-1,0-1.4-0.1h-0.2h-0.7
		c-0.5,0-0.9,0-1.3-0.1c-0.2,0-0.3,0-0.5,0c-0.3,0-0.6,0-0.9-0.1h-0.7h-0.4c-0.6-0.1-1.1-0.2-1.5-0.2c-0.1,0-0.2,0-0.3,0l-0.2-0.1
		h-0.7l-0.5-0.1h-0.4l-0.3-0.1c-0.4,0-0.7,0-1-0.1h-0.4l-0.2-0.1c-0.6,0-1.1-0.1-1.5-0.2c0.6-5.1,3-8.5,7.3-10.2h0.3
		c0.7-0.2,1.3-0.2,1.8-0.3c5.7,0.3,9,3.1,10,8.3C259.6,611.1,259.4,611.8,258.8,612.4z M231.3,596.8h1.1l-0.7,1.8l-0.1,0.3
		c-0.1,0.2-0.2,0.5-0.3,0.8l-0.7,1.8c-0.2,0.4-0.4,0.9-0.7,1.6l-0.5,1.7l-0.1,0.2l-0.1,0.2l-0.2,0.2l-0.1,0.5l-0.2,0.5
		c-0.2,0.4-0.3,0.9-0.5,1.5c-0.2,0.3-0.3,0.8-0.5,1.3l-0.2,0.2l-0.1,0.2v0.2l-0.2,0.2l-0.1,0.2l-0.1,0.2l-0.1,0.2l-0.1,0.3
		c0,0.1-0.1,0.2-0.1,0.4c-0.1,0.1-0.2,0.3-0.2,0.5l-0.7,1.8l-0.2,0.5l-0.1,0.2l-0.2,0.3l-0.2,0.5l-0.7,1.8l-0.2,0.5l-0.2,0.6
		c-0.3,0.5-0.5,1-0.6,1.7l-0.2,0.2v0.2c-0.1,0.1-0.2,0.3-0.3,0.6l-0.3,0.5l-0.3,1l-0.1,0.3c-0.2,0.3-0.4,0.7-0.5,1.2l-0.1,0.2
		l-0.3,0.8l-0.1,0.2l-0.5,1l-0.2,0.5l-0.6,1.5l-0.6,1.5l-0.1,0.2v0.2l-0.2,0.2l-0.1,0.3l-0.1,0.3l-0.1,0.3L219,631l-0.1,0.3
		c-0.1,0.2-0.2,0.5-0.3,0.8l-0.5,1l-0.2,0.6l-0.3,0.6c0,0.2-0.1,0.5-0.2,0.7l-0.2,0.6c-0.3,0.1-0.6,0.1-0.9,0.1c-0.1,0-0.2,0-0.4,0
		h-0.2h-0.2h-0.5h-0.2h-0.2H213h-0.3h-0.2h-0.3h-0.2h-0.3h-0.3h-0.3h-0.3h-0.2c-0.1-0.2-0.2-0.5-0.3-0.9l-0.2-0.5l-0.1-0.2l-0.1-0.2
		c-0.1-0.2-0.2-0.4-0.3-0.7c0-0.1,0-0.2-0.1-0.2l-0.3-1.1l-0.2-0.2l-0.1-0.4l-0.2-0.2l-0.1-0.3l-0.2-0.3l-0.1-0.4l-0.6-1.3l-0.2-0.5
		l-0.1-0.3l-0.2-0.2c-0.1-0.4-0.2-0.8-0.5-1.3l-0.2-0.5l-0.2-0.5l-0.2-0.5l-0.2-0.5l-0.3-0.5l-0.2-0.7l-0.2-0.5l-0.2-0.6
		c-0.1-0.5-0.3-1-0.6-1.6c-0.1-0.5-0.3-1.1-0.6-1.8l-0.1-0.2c-0.1-0.2-0.1-0.5-0.3-0.7l-0.2-0.6V617l-0.2-0.2
		c-0.1-0.4-0.2-0.8-0.5-1.2c-0.1-0.3-0.2-0.6-0.3-1l-0.1-0.2l-0.2-0.3c-0.1-0.5-0.3-1.1-0.7-1.7c-0.1-0.4-0.2-0.9-0.5-1.5
		c-0.1-0.4-0.2-0.7-0.4-1.1v-0.2l-0.2-0.2c-0.1-0.3-0.2-0.6-0.3-1.1l-0.2-0.2c-0.2-0.7-0.2-1.6-0.2-2.7v-1.1l0.3-0.9l0.1-0.5
		l0.1-0.2l0.3-0.9l0.2-0.6l0.2-0.2c0.1-0.2,0.2-0.4,0.3-0.7l0.1-0.4l0.2-0.2l0.1-0.2l0.2-0.2l0.1-0.3c0.2-0.2,0.3-0.5,0.5-0.8
		l0.2-0.2l0.5-1.1c0.2,0.4,0.5,0.8,0.7,1.4c0,0,0,0.1,0.1,0.2c0,0.2,0.1,0.4,0.2,0.7l0.2,0.6l0.1,0.2l0.2,0.3v0.2l0.2,0.2
		c0,0.4,0.2,0.8,0.4,1.2l0.2,0.9l0.1,0.3l0.8,1.8c0,0.1,0,0.2,0.1,0.2c0,0.3,0.1,0.6,0.3,0.9c0.1,0.5,0.3,1,0.5,1.7
		c0,0.2,0.1,0.4,0.2,0.6l0.1,0.2l0.1,0.4l0.2,0.5c0.1,0.4,0.3,1,0.6,1.6v0.2l0.2,0.5c0.1,0.3,0.2,0.7,0.4,1v0.2l0.1,0.2l0.2,0.5
		c0,0.2,0.1,0.4,0.2,0.7l0.1,0.3l0.1,0.3l0.2,0.4l0.1,0.2l0.4,1l0.1,0.2l0.2,0.5l0.2,0.7l0.1,0.2l0.2,0.3v0.2l0.2,0.2
		c0,0.1,0,0.2,0.1,0.2l0.1,0.4l0.2,0.2l0.2,0.5c0.1,0.2,0.2,0.5,0.3,0.9c0,0.2,0.1,0.5,0.2,0.7c0,0.1,0,0.2,0.1,0.3
		c0,0.1,0,0.2,0.1,0.2l0.4,1.4l0.1,0.2l0.2,0.3l0.1,0.3c0,0.1,0,0.2,0.1,0.2l0.1,0.3l0.2,0.5l0.1,0.5c0,0.1,0.1,0.2,0.2,0.4l0.2,1.1
		l0.2,0.4c0,0.2,0.1,0.4,0.3,0.5l0.6-1.8l0.1-0.4l0.1-0.2c0.1-0.3,0.2-0.6,0.3-0.9l0.1-0.2l0.2-0.5l0.1-0.3l0.2-0.4l0.2-0.5l0.4-1.1
		l0.1-0.5l0.3-0.6c0-0.1,0.1-0.3,0.2-0.6l0.1-0.2l0.1-0.3l0.5-1.4l0.2-0.6l0.2-0.5l0.2-0.5l0.2-0.5l0.7-2l0.1-0.2
		c0-0.3,0.1-0.6,0.2-0.9l0.1-0.6v-0.2c0.1-2.6-1.4-3.9-4.4-3.9c1-1.5,2.5-2.2,4.6-2.2c-0.5-2.9-2.3-4.6-5.3-5
		c0.6,1.9,0.1,3.4-1.6,4.5c-0.6,0.4-1.1,0.5-1.6,0.5c-0.7,0-1.4-0.3-2.1-1c-1.3-2.7-0.8-5,1.6-7.1c1.7-0.9,3.5-1.3,5.3-1.3
		c2.4,0,4.8,0.8,7.3,2.3c0.3,0.1,0.5,0.3,0.8,0.7l0.2,0.1l0.6-1.8l0.1-0.3l0.2-0.3l0.1-0.3l0.2-0.3l0.1-0.3h0.9h0.2h1.4h0.3h0.3h0.3
		h1.4h0.3L231.3,596.8L231.3,596.8z M450.9,600.4h0.6v1.9v0.4v0.3v0.4v0.4v1v0.4h-2.1h-0.3h-0.4h-0.3h-0.5h-0.3h-1.4H443h-0.6v1.2
		v0.3v1.8v0.4v0.4v0.4v0.4v1.2v1.9v0.4v0.6v0.5v0.6v0.7v0.6v0.7v3.2v0.3v0.3v0.8v0.8v2.1v0.3v0.3l0.1,0.7l0.1,0.9l0.5,1.6
		c1.2,1.5,2.7,2.3,4.6,2.3c0.9,0,2-0.2,3.1-0.6c0.1,0,0.1,0.1,0.2,0.2c-0.4,3.3-1.9,5.1-4.6,5.5c-0.4,0-0.8,0.1-1.2,0.1
		c-2.6,0-4.9-1-7.1-3c-0.2-0.5-0.5-0.9-0.9-1.3c-0.1-0.4-0.2-0.8-0.5-1.2c0-0.3-0.1-0.6-0.3-1c0-0.3-0.1-0.6-0.2-0.9
		c0-0.3,0-0.6-0.1-0.8v-0.6L436,627v-1c0-0.1,0-0.2-0.1-0.3v-20.5c-2.6-0.5-4.4-2.2-5.5-4.8h1.2h0.3h1.7h0.4h0.4h0.4h1.4l0.1-1.4
		c-0.1-2-1.5-3.1-4.3-3.2c0.9-1.2,2.3-1.9,4-2.2l-0.3-1.1c-1-1.7-2.5-2.7-4.6-3c0.6,2.9-0.6,4.5-3.7,4.7c-1-0.5-1.6-1.4-2-2.6
		c-0.1-3.2,1.6-5.3,5.1-6c1-0.2,2-0.3,2.9-0.3c6.6,0,9.6,5,8.9,15.1h2.1h0.3h0.3h0.3h0.5h0.3h1.4L450.9,600.4L450.9,600.4z
		 M186.4,597.6l-0.3-0.1l-0.2-0.1l-0.2-0.1l-0.4-0.1l-0.2-0.1l-0.2-0.1l-1.4-0.3h-0.1h-0.1h-0.1h-0.1H183H183h-0.1h-0.1h-0.1h-0.1
		h-0.1h-0.1h-0.1h-0.1h-0.1h-0.1H182h-0.1h-0.1h-0.1h-0.1h-0.1h-0.1h-0.1h-0.1h-0.1h-0.1h-0.1H181H181h-0.1h-0.1h-0.1h-0.1
		c-4,0.9-6.8,3.1-8.4,6.5l-0.2,1.4l0.2,1.2c0.2,0.4,0.4,0.7,0.4,1c0.4,0.4,0.6,0.8,0.8,1.1l0.2,0.1l0.2,0.2l1.1,0.8
		c0.4,0.1,0.8,0.2,1.1,0.2c1.1,0,1.8-0.6,2.2-1.7c0.6-1.8,0.1-3.2-1.4-4.2c1.1-0.7,2.2-1,3.2-1c1.2,0,2.3,0.4,3.3,1.3
		c-1.3,1.3-1.8,2.7-1.7,4.3c1.1-0.9,2.3-1.3,3.5-1.3c0.8,0,1.6,0.2,2.4,0.6c1.9,1.6,2.7,3.6,2.5,6h-0.3h-0.2h-1.6
		c-0.1,0-0.2,0-0.2,0c-0.2,0-0.5,0-0.6,0.1h-0.6l-1.8,0.2h-0.3c-0.5,0.1-1,0.2-1.4,0.2l-0.3,0.1l-0.4,0.1h-0.2l-1.1,0.2
		c-0.3,0.1-0.6,0.2-0.9,0.2l-0.3,0.1c-0.4,0.2-0.8,0.3-1.1,0.3c-1,0.4-1.8,0.7-2.4,0.9c-0.3,0.2-0.6,0.3-0.8,0.4l-0.2,0.2
		c-0.3,0.2-0.5,0.3-0.7,0.4c-0.3,0.3-0.7,0.5-1,0.6l-0.4,0.4l-0.2,0.2l-0.2,0.1c-0.1,0.1-0.1,0.2-0.2,0.2c-0.4,0.5-0.9,0.9-1.2,1.2
		l-0.1,0.3l-0.2,0.2l-0.5,0.7l-0.1,0.2l-0.2,0.2l-0.7,1.5l-0.1,0.3l-0.1,0.2v0.2l-0.2,0.7c-0.1,0.3-0.2,0.6-0.2,0.8v0.6l-0.1,0.3
		v2.3c1.1,5.2,4.1,8.1,9,8.7c0.6,0,1.1,0.1,1.7,0.1c4.5,0,8.1-1.7,10.7-5.1h0.3c-0.2,3.3,1,5,3.5,5.2c1.1-0.1,1.9-0.2,2.5-0.4
		C197.2,614.5,193.9,601.8,186.4,597.6z M186.3,629.9c-1.6,1-3.2,1.5-4.8,1.5c-1.1,0-2.1-0.2-3.2-0.7c-2.8-1.7-3.7-4.2-2.6-7.4
		c0.2-0.9,0.6-1.6,1.1-2.2l0.5-0.4c0.4-0.5,0.8-0.8,1.2-1l0.2-0.1l0.2-0.1l0.2-0.1l0.2-0.1l0.2-0.1l0.2-0.1c0.3-0.2,0.5-0.3,0.7-0.3
		c0.4-0.2,0.7-0.3,1.1-0.3c0.1,0,0.1-0.1,0.2-0.1c0.4-0.2,0.8-0.2,1-0.2c0.6-0.2,1.2-0.4,1.8-0.4c0.3-0.1,0.6-0.2,0.9-0.2h0.3
		l0.3-0.1h0.3h0.2l0.2-0.1h0.3c0.1,0,0.2,0,0.4,0c0.3,0,0.7,0,0.9-0.1h0.7c0.2,0,0.3,0,0.4,0c0.4,0,0.8,0,1.1,0.1
		C190.6,623.7,189.4,627.8,186.3,629.9z M425.2,604.8c0,5.6-1.8,8.4-5.5,8.4c-0.5,0-1.1-0.1-1.7-0.2c-1.8-0.8-2.3-2.1-1.4-3.7
		c0.7-1,1.5-1.5,2.5-1.5c0.6,0,1.2,0.2,1.9,0.5l0.1-1.1c-0.2-2-1.3-3.4-3.3-4.2c-0.3,1.4-1.2,2.6-2.6,3.4l-0.1-0.6
		c0.2-1.1,0-2.1-0.6-3.1c0,0-0.1,0-0.1,0c-1.3,0-2.5,0.5-3.7,1.4c-2,2.2-1.9,4.4,0.2,6.7c0.3,0.2,0.7,0.5,1.2,0.7
		c0.4,0.3,0.8,0.5,1.4,0.7l0.2,0.2h0.3c0.2,0.2,0.6,0.3,1,0.5l0.3,0.1l0.2,0.1h0.2l0.2,0.1l0.3,0.2l0.7,0.2l0.3,0.1l0.9,0.5
		c0.3,0.1,0.6,0.3,1,0.5l0.2,0.1c0.2,0.2,0.6,0.4,1,0.6l0.4,0.4l0.3,0.1c0.3,0.3,0.7,0.7,1.3,1.1c0.2,0.4,0.6,0.8,1,1.2l0.1,0.2
		l0.1,0.2l0.2,0.2l0.3,0.6l0.2,0.2c0.3,0.8,0.5,1.9,0.6,3.2c0.2,4.4-1.9,7.6-6.2,9.6l-0.4,0.2l0.1,1.6v0.3l0.1,0.2v0.2v0.3v0.3
		l0.1,0.3v0.5c-0.5,0-1.1,0-1.6,0c-12.9,0-18-4.6-15.3-13.9c0.3-0.4,0.5-0.9,0.7-1.5l0.5-0.7l0.2-0.2l0.1-0.2l0.2-0.2l0.1-0.2
		c1.2-1.3,2.4-1.9,3.7-1.9c1,0,2,0.4,3.1,1.1c1.7,1.7,1.4,3.2-0.8,4.5c-0.3,0.1-0.7,0.1-1,0.1c-0.8,0-1.6-0.3-2.4-1l-0.2,0.1
		c-0.4,1.1-0.4,2.2,0,3.5c0.4,1.1,1.1,1.8,2.1,2.2c0.6-1.3,1.7-2.2,3.3-2.5c-0.4,1-0.6,2.1-0.5,3.3l1.6,0.1h0.2c0.1,0,0.3,0,0.4,0
		c2.8,0,4.7-1.3,5.7-3.9c0.2-1.5-0.1-3-1-4.4c-0.4-0.4-0.9-0.8-1.5-1.2c0-0.1-0.1-0.1-0.2-0.2l-0.2-0.1l-0.2-0.2l-2.1-1l-1.3-0.4
		l-0.2-0.1l-0.2-0.1l-0.3-0.2l-0.3-0.1c-0.2-0.1-0.4-0.2-0.7-0.4c-0.2-0.1-0.5-0.2-0.7-0.3l-0.9-0.4l-1.2-0.8l-0.2-0.1l-0.2-0.2
		L407,615c0-0.1-0.1-0.1-0.2-0.2l-0.2-0.2l-0.2-0.1c0-0.1-0.1-0.1-0.2-0.2c-0.2-0.3-0.5-0.6-0.8-0.9l-0.1-0.2l-0.2-0.1l-0.3-0.5
		l-0.2-0.1l-0.5-1c-1.7-3.9-1-7.5,2.4-10.8c-0.1-0.4-0.2-0.9-0.5-1.5v-0.2l-0.2-0.3c0-0.1,0-0.2-0.1-0.2l-0.2-0.8l-0.1-0.3
		c0.3-0.1,0.6-0.2,1-0.2c0.2,0,0.4-0.1,0.6-0.2l0.7-0.2l0.7-0.1l1-0.2l0.4-0.1l0.9-0.1l0.7-0.1l0.2-0.1c0.1,0,0.1,0,0.2,0
		c0.2,0,0.3,0,0.5-0.1h0.2h0.2h0.1h0.1h0.1h0.1h0.1h0.1h0.1h0.1h0.1h0.1h0.1h0.1c0.5,0,1,0,1.4,0C421.3,596.1,424.7,599,425.2,604.8
		z M397.3,611.8v-0.2l-0.1-0.3v-0.2v-0.2c-0.1-0.2-0.1-0.5-0.1-0.7c-0.1-0.3-0.2-0.5-0.2-0.7c-2-8.2-6.9-12.3-14.6-12.3
		c-0.3,0-0.7,0-1.1,0l-0.3,0.1c-0.3,0-0.6,0-0.8,0.1H380l-0.4,0.1l-0.2,0.1H379c-0.1,0.1-0.1,0.1-0.2,0.1l-0.6,0.2l-0.7,0.2
		c-0.3,0.2-0.6,0.3-1,0.3c-0.3,0.2-0.6,0.3-0.9,0.4l-0.2,0.2c-0.4,0.2-0.7,0.4-0.9,0.4l-0.1,0.2l-0.3,0.1c-0.5,0.4-1,0.7-1.4,0.9
		l-0.2,0.2l-0.3,0.2c-0.1,0.1-0.1,0.1-0.2,0.2l-0.2,0.2l-0.2,0.2l-0.2,0.2l-0.5,0.5c-0.3,0.4-0.6,0.8-1,1.1
		c-3.1,4.7-4.5,9.7-4.1,14.9c1.3,10.9,7.4,16.3,18.2,16.3l-0.1,0.4c-0.3,0.7-0.5,1.3-0.6,1.8h0.3l0.3-0.1h0.3h0.2l0.2-0.1h0.2h0.3
		c0.5-0.2,0.9-0.2,1.2-0.2c0.1,0,0.1,0,0.2,0l0.2-0.1l1.5-0.3c8.3-2.4,10.6-6.6,6.8-12.6L395,623l-0.1-0.2c-0.2-0.2-0.4-0.4-0.5-0.6
		l-0.6-0.3l-0.5-0.3c-0.4-0.1-0.8-0.1-1.2-0.1c-1.2,0-2.3,0.5-3,1.5c-0.3,1.1,0,1.9,0.9,2.3c0.4,0.2,0.9,0.3,1.2,0.3
		c0.7,0,1.3-0.3,1.8-0.9c0.4,1.1,0.5,2.1,0.2,3l-1.8,0.6c-0.6-0.4-1.2-0.7-1.8-0.7c-0.1,0-0.1,0-0.2,0h0h0.1l0.4,1
		c-1.9,0.4-3.6,0.5-5.2,0.5c-6.9,0-11-3.4-12.3-10.2c-0.1-0.4-0.1-0.7-0.2-1v-0.2v-1h0.7h0.2h0.2h2.5h0.5h0.2h1h0.5h0.5h0.5h0.4h0.5
		h0.3h1.4h0.9h0.3h0.3h0.3h0.3h0.3h0.3h0.2h0.3h1.4h0.4h0.2h1.6h0.3h0.2h1.5h1.1h0.3h1.4h0.2l1-0.1c0.6-0.2,1.2-0.3,1.6-0.5l0.8-1
		l0.2-0.7v-0.3v-0.2v-0.3v-0.2v-1.1v-0.2l-0.1-0.4L397.3,611.8L397.3,611.8z M391,612.4l-0.2,0.1c-0.9,0.3-1.6,0.5-2.2,0.5h-0.2
		l-0.9,0.1c-0.2,0-0.3,0-0.5,0c-0.3,0-0.6,0-0.9,0.1h-0.7c-0.5,0-1,0-1.4-0.1h-0.2h-0.7c-0.5,0-0.9,0-1.3-0.1c-0.2,0-0.3,0-0.5,0
		c-0.3,0-0.6,0-0.9-0.1h-0.7h-0.4c-0.6-0.1-1.1-0.2-1.5-0.2c-0.1,0-0.2,0-0.3,0l-0.2-0.1h-0.7l-0.5-0.1h-0.4l-0.3-0.1
		c-0.4,0-0.7,0-1-0.1H374l-0.2-0.1c-0.6,0-1.1-0.1-1.5-0.2c0.6-5.1,3-8.5,7.3-10.2h0.3c0.7-0.2,1.3-0.2,1.8-0.3
		c5.7,0.3,9,3.1,10,8.3C391.7,611.1,391.5,611.8,391,612.4z M161.9,604c1.3,2,1.9,7,1.9,15.2v1.9v0.5v2.8v0.7v0.6v0.7v2.1v7.9v1
		l-0.1,0.8l-0.2,0.8c-0.3,0.7-0.6,1.6-0.8,2.7c-2.2,3.8-5.2,5.7-9,5.7c-2,0-4.2-0.5-6.6-1.5l-1.6-1.4l-0.1-0.3L145,644
		c-0.1-0.3-0.2-0.6-0.4-1c-0.5-2-0.1-3.9,1.2-5.6l1.3-0.7c3.1,0.8,4.1,2.7,3,5.8c0.2,0,0.4,0,0.6,0c1.5,0,2.9-0.5,4.2-1.4l0.7-1
		l0.6-1.1c-1.7-0.4-3-1.5-3.9-3.3c0.5,0.1,1,0.2,1.4,0.2c1,0,2.1-0.3,3.1-1v-22.1l-0.4-1.9l-0.2-0.5c-0.1-0.8-0.4-1.7-0.8-2.7
		l-0.2-0.3l-0.2-0.3l-0.2-0.4c-1.8-2.3-4.3-3.4-7.5-3.4c-0.4,0-0.7,0-1.1,0c-3.5,0.9-6,3.2-7.7,6.8c-0.3,0.9-0.4,2-0.5,3.2v1.3v2.3
		v0.5v1.6v0.5v2.7v2.1v0.7v2.1v0.8v3.3v1.2v2.2v0.4v0.5v1c-2.8-1.3-5.1-3.6-7.2-6.8l0-36.7l0.2-2.6v-0.5l0.1-0.3v-0.9l0.2-0.4v-0.6
		l0.2-1c0.3-1.1,0.9-2.3,1.7-3.7l0.1-0.5l0.4-0.3l0.2-0.5c1.6-1.7,3.6-2.8,6-3.4c0.1,0,0.2,0,0.3,0c8.8,0,12.4,3.1,10.8,9.4
		c-0.5,0.5-1.1,1.1-1.9,1.8c-3.5-0.3-4.6-2.3-3.3-6c-0.5-0.1-0.9-0.1-1.3-0.1c-2.1,0-3.7,1.1-4.8,3.2c1.5,0.5,2.6,1.6,3.2,3.4
		c-0.8-0.3-1.5-0.5-2.1-0.5c-1.3,0-2.2,0.7-2.8,2.1v1.9v0.5v3.4v0.7v1.9v0.5v2.8v1c2.7-4.2,6.8-6.5,12.3-6.8
		C155.2,597.3,159,599.6,161.9,604z M120.8,598c-0.2,0-0.4,0-0.6,0c-1.6-0.2-2.8-1-3.7-2.5c0.3-2.6,1.3-3.9,3.3-3.9
		c0.6,0,1.3,0.1,2.2,0.4l0.4,0.2c0.4-2.4-0.5-4.5-2.7-6.1l-0.8-0.2c-0.4,1.7-1.6,3-3.4,3.8c0.3-1.3,0.2-2.6-0.2-4.1l-0.3-0.3
		c-1.1-0.2-2.2-0.2-3.2-0.2c-4.9,0-9.6,1.6-14,4.9c-4,3.7-6.3,8.6-6.8,14.6c-0.1,0.3-0.1,0.7-0.1,1.1c-0.1,0.3-0.1,0.7-0.1,1.3v1.8
		v0.3v0.3c0.1,0.3,0.1,0.6,0.1,1v0.3c0.1,0.3,0.1,0.6,0.1,1.1l0.1,0.3c0,0.5,0.1,1.1,0.3,1.8v0.4l0.1,0.2c0,0.2,0.1,0.5,0.2,0.7
		l0.2,0.9c0,0.3,0.2,0.6,0.3,0.8v0.3l0.3,0.5c1.7,4.6,5,8,9.9,10.3c2.8,1.2,5.7,1.8,8.9,1.8c2.1,0,4.3-0.3,6.6-0.8l1.7-0.1l0.8,0.1
		l1.7,0.7l0.3,0.1l0.1,0.2l0.7,0.3l1,0.8l0.3,0.1c0,0.1,0.1,0.1,0.2,0.2l0.2,0.2l0.3,0.1l0.9,0.9c-4.8,2.1-9.8,3.2-15.1,3.2
		c-3.3,0-6.8-0.4-10.3-1.2l-2.3-1l-0.4-0.1l-0.4-0.2c-0.5-0.2-1-0.4-1.6-0.8l-0.3-0.1l-0.3-0.1l-1.8-1.3l-1.2-0.8l-0.2-0.2l-1.6-1.4
		l-0.1-0.2l-0.3-0.2c-0.2-0.3-0.4-0.5-0.7-0.7c-0.2-0.5-0.6-1-1.1-1.5c-0.1-0.3-0.3-0.5-0.5-0.7l-0.2-0.3l-0.2-0.4
		c0-0.1-0.1-0.1-0.2-0.2l-0.4-1l-0.6-0.9c0,0,0-0.1-0.1-0.2c0-0.1,0-0.1-0.1-0.2c0-0.1,0-0.2-0.1-0.2c0-0.1,0-0.1-0.1-0.2l-0.9-2.3
		l-0.3-0.7c0-0.1,0-0.2-0.1-0.3c0-0.1,0-0.2-0.1-0.3c0-0.4-0.1-0.8-0.3-1.2l-0.3-1.7c-0.1-0.2-0.1-0.5-0.1-0.8
		c-1.5-7.7-0.2-15.3,3.9-22.8c0.4-0.5,0.9-1.1,1.5-2l0.2-0.2l0.2-0.2l0.1-0.3l0.3-0.2l0.2-0.3l0.3-0.3l0.2-0.3l0.9-0.9l0.3-0.4
		c0.5-0.2,0.9-0.6,1.4-1.1c0.5-0.2,1.1-0.6,1.6-1.2l0.3-0.1l0.3-0.3c0.3-0.1,0.6-0.3,0.9-0.5l0.7-0.3l0.3-0.3c0.4-0.2,1-0.4,1.6-0.7
		l0.4-0.1l0.2-0.1l0.3-0.1c0.2-0.1,0.5-0.2,0.8-0.3l0.3-0.2c0.1,0,0.2,0,0.3-0.1l0.4-0.1l0.9-0.2l0.2-0.1c-0.2-0.4-0.4-0.7-0.9-0.9
		v-0.3c0.7-0.1,1.5-0.2,2.4-0.5h0.3h0.3l0.3-0.1c0.1,0,0.2,0,0.3-0.1h0.3c0.4,0,0.8-0.1,1.2-0.2h0.3c0.2,0,0.4,0,0.6-0.1h0.7h0.4
		c0.4-0.1,0.8-0.1,1.2-0.1c0.2,0,0.3,0,0.5,0h0.3c0.1,0,0.2,0,0.3-0.1l1.9,0.1h0.7h0.4h0.3l0.3,0.1h0.3c0.3,0.1,0.7,0.1,1.1,0.1
		l0.4,0.1l0.3,0.1h0.4l0.4,0.1l0.4,0.1l1.7,0.5l0.3,0.1l2.4,1l0.6,0.5l0.6,0.4l0.1,0.2l0.3,0.1l0.5,0.5c3,4.3,3.1,8.9,0.2,13.7
		C124.4,597.3,122.8,598,120.8,598z"/>
</g>
</svg>
