<?xml version="1.0" encoding="utf-8"?>
<!-- Generator: Adobe Illustrator 24.2.1, SVG Export Plug-In . SVG Version: 6.00 Build 0)  -->
<svg version="1.1" id="Layer_1" xmlns="http://www.w3.org/2000/svg" xmlns:xlink="http://www.w3.org/1999/xlink" x="0px" y="0px"
	 viewBox="0 0 600 600" style="enable-background:new 0 0 600 600;" xml:space="preserve">
<style type="text/css">
	.st0{fill:#00A3FF;}
	.st1{fill:#151515;}
</style>
<g>
	<g>
		<polygon class="st0" points="327.2,333 327.2,333 327.2,332.7 		"/>
		<path class="st0" d="M318.7,221.6l-1.6-0.4l-2.9-3.2l-0.6-4l-3.1-0.7l-3.5-0.9l-2.1-1.4l-1.7-1l-3.3,2.2l0.1-2l-1.9,0.5l-2.5,1.5
			l-2.1,0.2l-4.3,1.8l-4.3,1.2l-2,6l-1.9,0.8l1.3,1.8l0.3,2.4l-2.4,1l2.9,1.5l-1.7,1.8l3,2.8l2.2,3.8h2.6l2.7,1.1l4,1.6l1.6-0.4
			l1.8,2.4l1.5-1.9l3.1-0.1l1,1l2.1-1.5l2.8-0.8l2.9-3.2l1.4-0.7l3.7-3.1l0.3-4.5l-0.8-3.3L318.7,221.6z M293.4,226.2l6.6-6.7
			l6.7,6.7L300,233L293.4,226.2z"/>
		<polygon class="st0" points="305.3,354 305.4,354 305.5,353.6 		"/>
		<path class="st0" d="M190.9,110c4.8,8.5,11.3,15.2,19.3,21.4C211,126.5,200,114.4,190.9,110z"/>
		<path class="st0" d="M455.1,143.8c-26,11.3-51.9,22.8-77.9,34.1c-4,1.7-3.9,4.1-1.7,7.4c20.2-5.9,75.8-33.9,85.2-43.2
			C458.3,142.8,456.6,143.1,455.1,143.8z"/>
		<path class="st0" d="M391.2,133.3c-0.4-0.4-0.8-0.9-1.2-1.3c-1.1,0.5-2.4,0.7-3.2,1.5c-7.2,7.2-14.4,14.4-21.5,21.7
			c-2.5,2.6-0.7,4.3,2.3,6.6C375.7,152.1,383.4,142.7,391.2,133.3z"/>
		<path class="st0" d="M417.3,105.9c-9.3,4-21.6,17.5-20.3,22.4C404.7,121.5,411.5,115.1,417.3,105.9z"/>
		<path class="st0" d="M388.7,29.2c-17.5,35-35.9,69.6-49.4,106.4c-0.4,1.2-1.1,2.4-1.1,3.7c0,0.9,0.7,2.3,1.4,2.6
			c0.1,0.1,0.2,0.1,0.4,0.1c0.7,0,1.8-0.5,2.3-1.1c0.9-0.9,1.3-2.2,1.9-3.4c16.8-34,32.1-68.5,44.7-104.3c0.7-1.9,1.3-3.8,1.9-5.7
			c-0.3-0.1-0.5-0.2-0.8-0.3C389.6,27.9,389,28.5,388.7,29.2z"/>
		<path class="st0" d="M221.1,137.7c-1.1-1.1-2.8-1.6-4.2-2.4c-0.3,0.3-0.6,0.6-0.9,1c0.8,1.3,1.5,2.6,2.5,3.8
			c6,7.3,12.1,14.7,18.3,21.9c0.8,0.9,2.7,1.7,3.8,1.7c0.3,0,0.5,0,0.6-0.1c2.4-1.5,1.9-3.6-0.1-5.6
			C234.4,151.2,227.8,144.3,221.1,137.7z"/>
		<path class="st0" d="M458.6,196.3c-0.7,0.2-1,1.7-1.4,2.6c0.8,0.4,1.8,1.3,2.4,1.3c0.1,0,0.1,0,0.2,0c4.3-1.8,8.4-3.9,12.6-6
			c-0.2-0.6-0.5-1.2-0.7-1.7C467.3,193.7,462.9,194.8,458.6,196.3z"/>
		<path class="st0" d="M230.7,180.1c-25.1-10.9-50.1-22-75.2-33c-2.3-1-4.7-1.7-8.1-2.9c9.7,9.5,65.2,37.5,85.4,43.4
			C235.5,184,234.7,181.9,230.7,180.1z"/>
		<path class="st0" d="M223,38.1c-1.8-3.6-3.7-7.1-5.5-10.7c-0.4,0.1-0.7,0.2-1.1,0.4c0.6,1.8,1.1,3.6,1.8,5.4
			c12.5,35.6,27.8,70,44.5,103.8c1,1.9,3.6,5,4.5,5h0.1c3.9-1.7,1.1-4.7,0.3-6.9C255.4,101.5,238.7,70,223,38.1z"/>
		<path class="st0" d="M213.4,213.4c-16.6-3.9-33.2-8.2-49.8-12.1c-0.5-0.1-1.1-0.2-1.6-0.2c-1.4,0-3.1,0.3-5,0.4
			c3.7,4.9,46.4,18.1,60.5,19.5C218.7,216.8,217.8,214.5,213.4,213.4z"/>
		<path class="st0" d="M443.1,200.8c-0.7,0-1.4,0.1-2.1,0.2c-16.6,4-33.2,8.2-49.8,12.2c-4.3,1-5.6,3.2-4.2,7.5
			c0.6,0.1,1,0.2,1.2,0.2c0.1,0,0.1,0,0.2,0c18.2-5,36.3-10,54.5-15.2c1.6-0.5,2.9-2,4.4-3c-0.2-0.6-0.3-1.1-0.5-1.7
			C445.6,201,444.3,200.8,443.1,200.8z"/>
		<path class="st0" d="M301.8,67.1c-0.6,0-1.3,0.1-1.9,0.1c-0.8,18.3-1.7,36.6-2.5,55.2c5.7-1,6.5-1.3,6.4-5.6
			c-0.1-15-0.5-30-0.8-45.1C302.9,70.3,302.2,68.7,301.8,67.1z"/>
		<path class="st0" d="M417.3,105.9c-5.8,9.2-12.7,15.7-20.3,22.4C395.7,123.3,408.1,109.9,417.3,105.9z M386.8,133.5
			c-7.2,7.2-14.4,14.4-21.5,21.7c-2.5,2.6-0.7,4.3,2.3,6.6c8-9.7,15.8-19.1,23.5-28.5c-0.4-0.4-0.8-0.9-1.2-1.3
			C388.9,132.5,387.6,132.7,386.8,133.5z M339.6,141.9c0.1,0.1,0.2,0.1,0.4,0.1c0.7,0,1.8-0.5,2.3-1.1c0.9-0.9,1.3-2.2,1.9-3.4
			c16.8-34,32.1-68.5,44.7-104.3c0.7-1.9,1.3-3.8,1.9-5.7c-0.3-0.1-0.5-0.2-0.8-0.3c-0.4,0.6-1,1.2-1.3,1.9
			c-17.5,35-35.9,69.6-49.4,106.4c-0.4,1.2-1.1,2.4-1.1,3.7C338.2,140.2,338.9,141.6,339.6,141.9z M262.6,137c1,1.9,3.6,5,4.5,5h0.1
			c3.9-1.7,1.1-4.7,0.3-6.9c-12.1-33.6-28.8-65-44.5-97c-1.8-3.6-3.7-7.1-5.5-10.7c-0.4,0.1-0.7,0.2-1.1,0.4
			c0.6,1.8,1.1,3.6,1.8,5.4C230.7,68.8,245.9,103.2,262.6,137z M190.9,110c4.8,8.5,11.3,15.2,19.3,21.4
			C211,126.5,200,114.4,190.9,110z M241.1,157.9c-6.7-6.7-13.3-13.6-20.1-20.3c-1.1-1.1-2.8-1.6-4.2-2.4c-0.3,0.3-0.6,0.6-0.9,1
			c0.8,1.3,1.5,2.6,2.5,3.8c6,7.3,12.1,14.7,18.3,21.9c0.8,0.9,2.7,1.7,3.8,1.7c0.3,0,0.5,0,0.6-0.1
			C243.6,162,243.1,159.9,241.1,157.9z M213.4,213.4c-16.6-3.9-33.2-8.2-49.8-12.1c-0.5-0.1-1.1-0.2-1.6-0.2c-1.4,0-3.1,0.3-5,0.4
			c3.7,4.9,46.4,18.1,60.5,19.5C218.7,216.8,217.8,214.5,213.4,213.4z M303.7,116.9c-0.1-15-0.5-30-0.8-45.1c0-1.6-0.8-3.2-1.2-4.7
			c-0.6,0-1.3,0.1-1.9,0.1c-0.8,18.3-1.7,36.6-2.5,55.2C303,121.6,303.8,121.2,303.7,116.9z M230.7,180.1
			c-25.1-10.9-50.1-22-75.2-33c-2.3-1-4.7-1.7-8.1-2.9c9.7,9.5,65.2,37.5,85.4,43.4C235.5,184,234.7,181.9,230.7,180.1z
			 M443.1,200.8c-0.7,0-1.4,0.1-2.1,0.2c-16.6,4-33.2,8.2-49.8,12.2c-4.3,1-5.6,3.2-4.2,7.5c0.6,0.1,1,0.2,1.2,0.2
			c0.1,0,0.1,0,0.2,0c18.2-5,36.3-10,54.5-15.2c1.6-0.5,2.9-2,4.4-3c-0.2-0.6-0.3-1.1-0.5-1.7C445.6,201,444.3,200.8,443.1,200.8z
			 M471.6,192.4c-4.4,1.3-8.8,2.4-13.1,3.9c-0.7,0.2-1,1.7-1.4,2.6c0.8,0.4,1.8,1.3,2.4,1.3c0.1,0,0.1,0,0.2,0
			c4.3-1.8,8.4-3.9,12.6-6C472.1,193.6,471.9,193,471.6,192.4z M375.5,185.2c20.2-5.9,75.8-33.9,85.2-43.2c-2.4,0.7-4.1,1.1-5.6,1.8
			c-26,11.3-51.9,22.8-77.9,34.1C373.2,179.6,373.2,181.9,375.5,185.2z M235.3,375.9l-65.2,2.4l33.3-56l31-56.8l31.8-56.3l33.8-57
			l31.3,58.4l31.4,56.6l34,55.1l33.4,56.1l-65.3-1.1l-64.7,0.2L235.3,375.9z M324.8,268.2l-3.8,3.5l25.3,87l3.5,10.6l66.4,1
			L379,305.5l-35.9-65.1L324.8,268.2z M286.7,193.6l25.5,0.4l2.1-0.6l-14.4-25.8L286.7,193.6z M272.1,221.7l1,2.2l1.3,6.4l1.2,3.1
			l1.7,4.9l3.8,4.7l4.5,0.9l1.7,1.2l3.3-0.1l0.5,1.9l1.4-0.1l1.7-0.8l1.1,1.3l-1,1l2.6,11.4l-1.8,1l-2.8-0.8l-0.2,0.7l1.2,9.1
			l-1,1.5l2.4-0.7l1.9,0.6l-1.7,94.6l0.6,1.1l0.9-0.1l0.4,1.9l2.7,1.6l1.4-0.9l2.9-0.8l0.4-2.2l1.2-12.2l8.7-1.8l-0.8,1.3l0.6,3.8
			l1.4,1.8L331,359v-1l0.9-6.9l-4.8,1l0.9-1.1l-2.8-5.4l1.8,0.9l3.8-0.6l-0.3-0.8l1.5-7l-4.9,1.6l-0.2-1.7l0.2-4.8l3.5-1l0.2,0.1
			l2.2-6.6l-1.8,1l-16.2-2.2l-1.4,1.7l1.7,3.6l-1.4,0.4l-8.5,1.8l-0.4-2.4l-1.1-57.7l2.2-1.2l-1-1.7l3.1,2.7l1.2-2l-0.7-9.1
			l-0.4,0.4l-3.1,0.7l0.4-2.1l-2.4-10.4l0.7-1.6l1.5-0.8l2.2-0.8l2.4,0.2l0.8-1.4l1.9-0.1l4.5-0.6l1.9-4.4l3.4,0.2l1.3-4.9l3.1-3
			l-1.9-2.8l3.3-3.3l-2.6-2.2l-0.7-0.8l-0.6-3.7l-3.9-7.3l-3.4-2.2l-4.1-2.1l-4.1-0.6l-1.6-3.6l-1.8,1.3l-2.7-1.2l-5.9,0.9l-3.5-0.1
			l-3,0.5l-3,2.6l-3.9,2.6l-2.6,1.4l-4.1,1.2l0.3,1.1l-1.9,2.2l-1.4,2.7L272.1,221.7z M182.4,370.8l67.7-1.4l1.8-1.5l14-48
			l11.1-48.7l-2-2.8l-17.2-27.2l-37,64.3L182.4,370.8z M460.5,417.5c-0.2,0-0.4,0-0.6,0c-0.1,0-0.1,0.1-0.2,0.1h-0.3l-0.3,0.1
			l-0.2,0.1l-1.7,0.6l-0.1,0.1l-0.5,0.2c-0.2,0.2-0.4,0.3-0.6,0.4l-0.2,0.1l-0.5,0.3c-0.2,0.3-0.4,0.4-0.7,0.5l-0.3,0.3
			c-0.3,0.4-0.6,0.6-0.9,0.8l-0.1,0.3l-0.5,0.4c-0.3,0.5-0.6,0.8-0.9,1.1v-0.4v-1.1c-0.1-0.1-0.1-0.3-0.1-0.4v-0.2v-1l-0.1-0.5v-1.4
			h-0.3h-0.3H451h-1.4h-1h-0.3H447h-0.2H446v0.3l0.1,0.1c0,0.5,0,0.9,0.1,1.2v1.6c0,0.1,0.1,0.1,0.1,0.2v23.1c0,1.1,0,1.9,0.2,2.6
			l0.2,0.2l0.1,0.5l0.1,0.1l0.4,0.8l0.2,0.2l0.1,0.2c0.4,0.5,0.8,0.9,1,1.3l0.3,0.2l0.1,0.2l0.3,0.2l0.6,0.7
			c0.4,0.3,0.7,0.6,0.9,0.8l0.2,0.1l0.1,0.2c0.6,0.4,1.1,0.8,1.4,1.1h0.2v-0.2v-1V452v-1v-0.2v-0.9v-0.3v-0.3v-1.5v-0.2v-1.3V446
			v-2.3v-1.5v-0.5v-0.2v-0.3V441v-0.4v-0.2v-0.3v-0.3v-1.5v-0.2v-1v-1V435v-0.8V434v-0.3v-0.2l0.1-0.5c0-0.4,0-0.7,0.1-0.9v-0.5
			c1.2-2.1,2.7-3.6,4.4-4.4c1.6,0.2,2.8,0.8,3.7,2c0.3-1.8,0-3.4-1-4.6c1-0.5,2-0.7,2.9-0.7c1.4,0,2.7,0.6,3.8,1.7
			c-2.5,1.3-3,3.1-1.7,5.5l0.8,0.6c0.3,0,0.5,0,0.7,0c1.7,0,3.1-0.7,4-2.2c1.2-3.1,0.5-5.8-2.2-8.2
			C466.2,418.7,463.5,417.5,460.5,417.5z M489.9,418.3l-0.3-0.1l-0.2-0.1l-0.2-0.1l-0.3-0.1l-0.2-0.1l-0.1-0.1l-1.3-0.3h-0.1H487
			h-0.1h-0.1h-0.1h-0.1h-0.1h-0.1h-0.1h-0.1h-0.1H486h-0.1h0.1l0,0h-0.1h-0.1h-0.1h-0.1h-0.1h-0.1h-0.1h-0.1h-0.1H485h-0.1h0.1l0,0
			h-0.1h-0.1h-0.1h-0.1h-0.1h-0.1c-3.8,0.9-6.4,2.9-7.8,6.1l-0.1,1.3l0.1,1.1c0.2,0.3,0.3,0.6,0.4,0.9c0.3,0.4,0.6,0.7,0.7,1
			l0.1,0.1l0.1,0.2l1,0.7c0.4,0.1,0.7,0.2,1,0.2c1,0,1.7-0.5,2.1-1.6c0.6-1.7,0.1-3-1.3-3.9c1-0.6,2-0.9,3-0.9
			c1.1,0,2.1,0.4,3.1,1.2c-1.2,1.2-1.7,2.5-1.6,4c1.1-0.8,2.1-1.2,3.2-1.2c0.7,0,1.5,0.2,2.2,0.6c1.7,1.4,2.5,3.3,2.3,5.6h-0.3h-0.2
			h-1.5c-0.1,0-0.2,0-0.2,0c-0.2,0-0.4,0-0.6,0.1h-0.5L488,433h-0.3c-0.5,0.1-0.9,0.1-1.3,0.1l-0.3,0.1l-0.3,0.1h-0.2l-1,0.2
			c-0.3,0.1-0.6,0.2-0.8,0.2l-0.3,0.1c-0.4,0.2-0.7,0.3-1,0.3c-0.9,0.4-1.6,0.7-2.2,0.8c-0.3,0.2-0.5,0.3-0.8,0.4l-0.1,0.1
			c-0.2,0.1-0.5,0.3-0.7,0.3c-0.3,0.3-0.6,0.5-0.9,0.6l-0.4,0.4l-0.2,0.1l-0.1,0.1c0,0.1-0.1,0.1-0.1,0.1c-0.4,0.5-0.8,0.9-1.2,1.1
			l-0.1,0.3l-0.1,0.1l-0.4,0.6l-0.1,0.2l-0.2,0.1l-0.7,1.4l-0.1,0.3l-0.1,0.2v0.2l-0.1,0.6c-0.1,0.3-0.2,0.5-0.2,0.8v0.6l-0.1,0.3
			v2.2c1,4.8,3.8,7.5,8.4,8.1c0.5,0,1.1,0.1,1.6,0.1c4.2,0,7.5-1.6,10-4.8h0.3c-0.2,3.1,0.9,4.7,3.3,4.8c1-0.1,1.8-0.2,2.3-0.4
			C499.9,434.1,496.8,422.3,489.9,418.3z M489.8,448.3c-1.5,0.9-3,1.4-4.5,1.4c-1,0-2-0.2-3-0.6c-2.6-1.6-3.4-3.9-2.5-6.9
			c0.2-0.8,0.5-1.5,1-2.1l0.4-0.4c0.4-0.4,0.8-0.8,1.1-1l0.2-0.1l0.1-0.1l0.1-0.1l0.1-0.1l0.1-0.1l0.1-0.1c0.3-0.1,0.5-0.3,0.7-0.3
			c0.4-0.2,0.7-0.3,1-0.3l0.1-0.1c0.4-0.1,0.7-0.2,1-0.2c0.6-0.2,1.1-0.3,1.6-0.3c0.3-0.1,0.6-0.1,0.8-0.1h0.3l0.3-0.1h0.3h0.2
			l0.2-0.1h0.2c0.1,0,0.2,0,0.3,0c0.3,0,0.6,0,0.9-0.1h0.6c0.1,0,0.3,0,0.4,0c0.4,0,0.8,0,1.1,0.1
			C493.8,442.6,492.6,446.4,489.8,448.3z M360.7,428.4l0.1,1.8v0.5v0.3v0.5v0.3v0.9v0.5v1.3v0.5v0.6v0.5v2v0.5v0.9v0.8v2.3v0.9v0.8
			v0.7v0.8v1.4v0.3v1.9v0.5v1.5v0.6v0.4v0.6v0.5c-2.7-1.2-5-3.3-6.7-6.2c-0.1-0.7-0.1-2-0.1-4.1l-0.1-0.3l-0.1-19.1
			c0-0.4,0-0.9-0.1-1.5v-1.6c0-0.1,0-0.2-0.1-0.3v-0.9c0-0.3-0.1-0.7-0.1-1.1l-0.3-0.9c0-0.5-0.1-0.9-0.2-1.3v-0.4l-0.7-2.2
			c0-0.1,0-0.1-0.1-0.2l-0.1-0.4l-0.1-0.5c-0.2-0.3-0.5-0.8-0.7-1.4c-0.9-1.4-2.3-2.4-4.1-2.9c-0.4,0-0.8-0.1-1.1-0.1
			c-5.1,0-7.9,4.4-8.4,13c0.4-0.5,0.9-1,1.6-1.6c1.4-1.1,2.9-1.6,4.4-1.6c1.9,0,3.8,0.8,5.7,2.5c1.8,1.2,2.7,2.9,2.5,5.1
			c-0.3,1.7-1.4,2.8-3.2,3.4c-3-1-3.3-2.8-1-5.5c-0.8-0.4-1.6-0.6-2.4-0.6c-1.1,0-2.3,0.4-3.4,1.2c1.1,0.9,1.6,2.2,1.7,3.8
			c-0.7-0.7-1.5-1-2.3-1c-0.6,0-1.2,0.2-1.8,0.6c-0.7,0.8-1.3,1.9-1.8,3.2l-0.1,0.2v2.3v0.3c0,0.1,0,0.2,0.1,0.3v0.5v0.3v0.3v1.3
			v1.6v0.7v0.5v1.6v0.8v1.5v3.5v0.3v0.3v0.7c0,0.6,0,1.4,0.1,2.3v0.9v0.3v0.5v0.4v1.6c-0.3,0-0.5-0.1-0.9-0.1c-0.6,0-1.2,0.1-2,0.2
			h-0.4h-0.4h-0.4h-0.3h-0.7h-0.6v-4.1c0-0.1,0-0.3-0.1-0.4l-0.1-17.9c0-0.7-0.2-1.3-0.6-1.8c-0.6-1.7-1.5-2.5-2.7-2.5
			c-0.7,0-1.6,0.3-2.5,0.9c0-1.4,0.5-2.6,1.7-3.6l-0.5-0.5c-0.9-0.6-1.8-0.9-2.7-0.9c-0.8,0-1.7,0.2-2.6,0.7
			c1.9,1.8,1.9,3.6-0.1,5.3c-0.3,0.1-0.7,0.2-1.1,0.2c-3.9-2.1-4.2-4.8-0.9-8.2c2-1.9,4.1-2.8,6.1-2.8s3.9,0.9,5.9,2.6
			c-0.4-6.5-3.4-10.6-8.8-12.4h-1.5h-0.3l-0.9,0.1c-2,0.4-3.8,1.7-5.1,3.7c-0.2,0.5-0.5,1-0.7,1.7c-0.2,0.4-0.4,0.8-0.5,1.4
			l-0.2,0.4l-0.1,0.9l-0.4,1.8v0.4l-0.1,0.3l-0.1,1.8v0.3l-0.1,0.3v0.4v0.5v1.5v0.4v0.3l0.1,0.2v0.3v0.4v1.3v1.5v0.4v0.6v0.4v1.5
			v0.4v0.4v0.7v2l0.1,0.7v0.8v0.4v0.3v2v0.5v0.4v0.5v0.4v1.2v2.3v0.9v0.8v0.9l-0.1,0.9c-0.3,0.4-0.5,0.9-0.8,1.5l-0.2,0.1l-0.3,0.3
			l-0.1,0.3c-0.5,0.4-1.1,1-1.7,1.7c-0.1,0-0.1,0.1-0.2,0.3l-0.4,0.1l-0.2,0.3c-0.3,0.2-0.7,0.4-1.2,0.8l-0.3,0.4
			c-0.3,0.1-0.6,0.3-0.9,0.6l-0.6,0.2V452v-18.8v-16.4c0.1-0.6,0.2-1.3,0.2-2.1l0.2-0.8v-0.7l0.8-2.9l0.1-0.4l0.1-0.3l0.1-0.4
			l0.1-0.4c2.4-5.6,6.9-8.6,13.5-8.8c6.7,0.1,11.3,3.6,14,10.4c1.9-6.5,5.9-10,12.1-10.6c3.6,0.1,6.6,1.7,9.1,4.8
			c0.2,0.4,0.4,0.8,0.8,1.2l0.2,0.7l0.1,0.2l0.3,0.2l0.1,0.4l0.2,0.5l0.1,0.3l0.3,0.2c0.1,0.5,0.3,1.2,0.7,2.1v0.3l0.2,0.4
			c0,0.6,0.2,1.3,0.4,2.1l0.1,0.8l0.1,0.4l0.1,1.3l0.1,0.3c0,0.6,0,1.3,0.2,2.1v0.4v0.8v0.4l0.1,0.4v0.3v0.5v0.5v1.2v0.4v1.3v0.5
			v0.6v1.6v0.6L360.7,428.4L360.7,428.4z M278.3,435.5H300v3.5h-21.7V435.5z M269.8,431.6v-0.2l-0.1-0.3v-0.2v-0.2
			c-0.1-0.2-0.1-0.4-0.1-0.6c-0.1-0.2-0.2-0.5-0.1-0.7c-1.9-7.6-6.4-11.4-13.5-11.4c-0.3,0-0.7,0-1,0l-0.3,0.1c-0.3,0-0.5,0-0.8,0.1
			h-0.2l-0.4,0.1l-0.2,0.1h-0.3c-0.1,0-0.1,0.1-0.2,0.1l-0.6,0.1l-0.6,0.1c-0.3,0.2-0.6,0.3-0.9,0.3c-0.3,0.2-0.5,0.3-0.8,0.4
			l-0.2,0.1c-0.3,0.2-0.6,0.4-0.8,0.4l-0.1,0.1l-0.3,0.1c-0.5,0.4-0.9,0.7-1.3,0.8l-0.2,0.2l-0.3,0.2c0,0.1-0.1,0.1-0.1,0.1
			l-0.2,0.2l-0.2,0.1l-0.2,0.2l-0.5,0.5c-0.3,0.4-0.6,0.7-0.9,1c-2.9,4.4-4.2,9-3.8,13.8c1.3,10.1,6.9,15.2,16.9,15.2l-0.1,0.4
			c-0.3,0.6-0.5,1.2-0.6,1.7h0.3l0.3-0.1h0.3h0.2l0.2-0.1h0.2h0.3c0.4-0.1,0.8-0.2,1.1-0.2h0.1l0.2-0.1l1.4-0.3
			c7.7-2.2,9.8-6.1,6.3-11.7l-0.2-0.1l-0.1-0.1c-0.2-0.2-0.4-0.3-0.5-0.5l-0.5-0.3l-0.4-0.3c-0.4-0.1-0.8-0.1-1.1-0.1
			c-1.2,0-2.1,0.5-2.8,1.4c-0.3,1,0,1.8,0.8,2.2c0.4,0.2,0.8,0.3,1.2,0.3c0.6,0,1.2-0.3,1.7-0.8c0.4,1,0.4,1.9,0.1,2.8l-1.6,0.5
			c-0.5-0.4-1.1-0.6-1.7-0.6c-0.1,0-0.1,0-0.2,0l0,0h0.1l0.4,0.9c-1.8,0.3-3.4,0.5-4.9,0.5c-6.4,0-10.2-3.2-11.4-9.5
			c-0.1-0.4-0.1-0.7-0.1-0.9v-0.2v-0.9h0.6h0.2h0.2h2.4h0.5h0.2h1h0.5h0.5h0.5h0.4h0.5h0.3h1.3h0.8h0.3h0.3h0.3h0.3h0.3h0.3h0.2h0.3
			h1.3h0.3h0.2h1.5h0.3h0.2h1.4h1h0.3h1.3h0.2l0.9-0.1c0.6-0.1,1.1-0.3,1.4-0.5l0.8-0.9l0.1-0.6v-0.3v-0.2v-0.3v-0.2v-1V432
			l-0.1-0.3L269.8,431.6L269.8,431.6z M264,432.1l-0.1,0.1c-0.8,0.3-1.5,0.5-2.1,0.5h-0.2l-0.8,0.1c-0.2,0-0.3,0-0.5,0
			c-0.3,0-0.6,0-0.8,0.1h-0.7c-0.5,0-0.9,0-1.3-0.1h-0.2h-0.6c-0.5,0-0.9,0-1.2-0.1c-0.2,0-0.3,0-0.5,0c-0.3,0-0.6,0-0.8-0.1h-0.7
			h-0.4c-0.6-0.1-1-0.1-1.4-0.1c-0.1,0-0.2,0-0.2,0l-0.1-0.1h-0.6l-0.5-0.1h-0.4l-0.3-0.1c-0.4,0-0.7,0-0.9-0.1h-0.4l-0.2-0.1
			c-0.6,0-1-0.1-1.4-0.1c0.5-4.7,2.8-7.9,6.8-9.4h0.3c0.7-0.1,1.2-0.2,1.7-0.3c5.3,0.3,8.3,2.9,9.3,7.7
			C264.6,430.9,264.4,431.6,264,432.1z M238.3,417.6h1l-0.6,1.6l-0.1,0.3c-0.1,0.2-0.2,0.4-0.3,0.7l-0.7,1.6
			c-0.1,0.4-0.3,0.9-0.6,1.4l-0.5,1.6l-0.1,0.1l-0.1,0.2l-0.1,0.1l-0.1,0.4l-0.2,0.4c-0.1,0.4-0.3,0.8-0.5,1.4
			c-0.2,0.3-0.3,0.7-0.4,1.2l-0.1,0.2l-0.1,0.1v0.2l-0.1,0.1l-0.1,0.2l-0.1,0.2l-0.1,0.2l-0.1,0.3c0,0.1,0,0.2-0.1,0.3
			c-0.1,0.1-0.1,0.3-0.2,0.5l-0.7,1.6l-0.2,0.5l-0.1,0.2l-0.1,0.3l-0.1,0.5l-0.7,1.6l-0.2,0.5l-0.1,0.5c-0.2,0.4-0.4,1-0.6,1.6
			l-0.1,0.1v0.2c-0.1,0.1-0.2,0.3-0.3,0.6l-0.3,0.5l-0.3,0.9l-0.1,0.3c-0.2,0.3-0.4,0.6-0.5,1.1l-0.1,0.1l-0.3,0.8l-0.1,0.2
			l-0.4,0.9l-0.1,0.5l-0.5,1.4l-0.6,1.4l-0.1,0.1v0.2l-0.1,0.1l-0.1,0.3l-0.1,0.3l-0.1,0.3l-0.1,0.3l-0.1,0.3
			c-0.1,0.2-0.2,0.4-0.3,0.7l-0.5,1l-0.1,0.6l-0.3,0.5c0,0.2-0.1,0.4-0.2,0.6l-0.1,0.6c-0.3,0.1-0.5,0.1-0.9,0.1c-0.1,0-0.2,0-0.3,0
			h-0.2h-0.2h-0.5H223h-0.2h-1.4H221h-0.2h-0.3h-0.2H220h-0.3h-0.3h-0.3h-0.2c-0.1-0.2-0.2-0.5-0.3-0.9l-0.2-0.5l-0.1-0.1l-0.1-0.2
			c0-0.2-0.1-0.4-0.3-0.6c0-0.1,0-0.1-0.1-0.2l-0.3-1l-0.1-0.2l-0.1-0.4l-0.1-0.2l-0.1-0.3l-0.1-0.3l-0.1-0.4l-0.5-1.2l-0.1-0.5
			l-0.1-0.3l-0.1-0.2c0-0.4-0.2-0.8-0.4-1.2l-0.1-0.5l-0.1-0.4l-0.1-0.4l-0.2-0.4l-0.3-0.5l-0.2-0.6l-0.2-0.5l-0.2-0.5
			c-0.1-0.4-0.3-0.9-0.6-1.5c-0.1-0.5-0.3-1-0.6-1.7l-0.1-0.1c0-0.2-0.1-0.4-0.3-0.6l-0.2-0.5v-0.2l-0.1-0.2c0-0.4-0.2-0.7-0.4-1.1
			c0-0.3-0.1-0.6-0.3-1l-0.1-0.2l-0.1-0.3c-0.1-0.5-0.3-1-0.6-1.6c0-0.4-0.2-0.9-0.5-1.4c0-0.3-0.2-0.7-0.4-1v-0.2l-0.1-0.1
			c0-0.3-0.1-0.6-0.3-1l-0.1-0.2c-0.1-0.7-0.2-1.5-0.1-2.5v-1l0.3-0.9l0.1-0.4l0.1-0.2l0.3-0.8l0.2-0.6l0.1-0.2
			c0-0.2,0.1-0.4,0.3-0.6l0.1-0.3l0.1-0.2l0.1-0.2l0.2-0.2l0.1-0.3c0.2-0.2,0.3-0.5,0.4-0.8l0.1-0.1l0.5-1c0.2,0.3,0.4,0.8,0.6,1.3
			c0,0,0,0.1,0.1,0.1c0,0.2,0.1,0.4,0.2,0.6l0.1,0.6l0.1,0.1l0.1,0.3v0.2l0.1,0.2c0,0.3,0.1,0.7,0.4,1.1l0.2,0.8l0.1,0.3l0.7,1.6
			c0,0.1,0,0.1,0.1,0.2c0,0.3,0.1,0.6,0.3,0.9c0.1,0.4,0.2,1,0.5,1.6c0,0.1,0.1,0.3,0.2,0.6l0.1,0.2l0.1,0.3l0.2,0.5
			c0.1,0.4,0.3,0.9,0.5,1.4v0.2l0.2,0.5c0,0.3,0.2,0.6,0.4,0.9v0.2l0.1,0.2l0.2,0.5c0,0.2,0.1,0.4,0.2,0.6l0.1,0.3l0.1,0.3l0.1,0.3
			l0.1,0.2l0.4,0.9l0.1,0.1l0.2,0.5l0.1,0.7l0.1,0.1l0.1,0.3v0.2l0.1,0.2c0,0.1,0,0.1,0.1,0.2l0.1,0.4l0.1,0.2l0.1,0.5
			c0,0.2,0.1,0.5,0.3,0.9c0,0.2,0.1,0.4,0.2,0.6c0,0.1,0,0.2,0.1,0.3c0,0.1,0,0.1,0.1,0.2l0.4,1.3l0.1,0.2l0.1,0.3l0.1,0.3
			c0,0.1,0,0.1,0.1,0.2l0.1,0.3l0.1,0.4l0.1,0.4c0,0.1,0.1,0.2,0.1,0.4l0.2,1l0.1,0.4c0,0.2,0.1,0.3,0.3,0.5l0.5-1.6l0.1-0.4
			l0.1-0.2c0-0.3,0.1-0.6,0.3-0.9l0.1-0.2l0.1-0.5l0.1-0.3l0.1-0.4l0.1-0.4l0.4-1l0.1-0.5l0.3-0.5c0-0.1,0.1-0.3,0.2-0.6l0.1-0.1
			l0.1-0.3l0.4-1.3l0.1-0.5l0.1-0.4l0.2-0.5l0.1-0.4l0.7-1.8l0.1-0.2c0-0.3,0-0.5,0.1-0.8l0.1-0.5v-0.2c0.1-2.4-1.3-3.6-4.1-3.6
			c0.9-1.4,2.4-2,4.2-2.1c-0.5-2.7-2.1-4.3-5-4.7c0.6,1.8,0,3.2-1.5,4.2c-0.5,0.3-1,0.5-1.5,0.5c-0.7,0-1.3-0.3-2-0.9
			c-1.2-2.5-0.7-4.7,1.5-6.6c1.6-0.8,3.3-1.2,4.9-1.2c2.2,0,4.5,0.7,6.8,2.1c0.2,0.1,0.5,0.3,0.8,0.6l0.2,0.1l0.6-1.7l0.1-0.3
			l0.1-0.3l0.1-0.3l0.1-0.3l0.1-0.3h0.9h0.2h1.3h0.3h0.3h0.3h1.3h0.3h0.8V417.6z M442.4,421h0.6v1.7v0.4v0.3v0.4v0.4v0.9v0.4h-1.9
			h-0.3h-0.4h-0.3h-0.5h-0.3H438h-3h-0.6v1.2v0.3v1.7v0.4v0.4v0.4v0.4v1.1v1.7v0.4v0.6v0.5v0.6v0.6v0.6v0.7v3v0.3v0.3v0.8v0.8v2v0.3
			v0.3l0.1,0.7l0.1,0.8l0.5,1.4c1.1,1.4,2.5,2.1,4.2,2.1c0.9,0,1.8-0.2,2.9-0.5c0.1,0,0.1,0.1,0.2,0.2c-0.4,3-1.8,4.7-4.3,5.1
			c-0.4,0-0.7,0.1-1.1,0.1c-2.4,0-4.6-0.9-6.6-2.8c-0.2-0.4-0.5-0.8-0.8-1.2c-0.1-0.4-0.2-0.8-0.5-1.2c0-0.3-0.1-0.6-0.3-0.9
			c0-0.3-0.1-0.6-0.2-0.9c0-0.3,0-0.5-0.1-0.8v-1l-0.1-0.3v-0.9c0-0.1,0-0.2-0.1-0.3v-19.1c-2.4-0.5-4.1-2-5.1-4.5h1.2h0.3h1.6h0.4
			h0.4h0.4h1.3l0.1-1.3c0-1.8-1.4-2.8-4-3c0.9-1.1,2.1-1.8,3.7-2l-0.3-1.1c-0.9-1.6-2.3-2.5-4.3-2.7c0.6,2.7-0.6,4.2-3.4,4.4
			c-0.9-0.5-1.5-1.3-1.8-2.5c-0.1-3,1.5-4.9,4.7-5.6c0.9-0.2,1.8-0.3,2.7-0.3c6.2,0,8.9,4.7,8.2,14h1.9h0.3h0.3h0.3h0.5h0.3h1.3h3.1
			V421z M196.6,418.3l-0.3-0.1l-0.2-0.1l-0.2-0.1l-0.3-0.1l-0.2-0.1l-0.1-0.1l-1.3-0.3h-0.1h-0.1h-0.1h-0.1h-0.1h-0.1h-0.1h-0.1
			h-0.1H193h0l0,0h-0.1h-0.1h-0.1h-0.1h-0.1h-0.1h-0.1h-0.1h-0.1H192h-0.1h-0.1h0.2h-0.1h-0.1h-0.1h-0.1h-0.1h-0.1h-0.1h-0.1h-0.1
			c-3.8,0.9-6.4,2.9-7.8,6.1l-0.1,1.3l0.1,1.1c0.2,0.3,0.3,0.6,0.4,0.9c0.3,0.4,0.6,0.7,0.7,1l0.1,0.1l0.1,0.2l1,0.7
			c0.4,0.1,0.7,0.2,1,0.2c1,0,1.7-0.5,2.1-1.6c0.6-1.7,0.1-3-1.3-3.9c1-0.6,2-0.9,3-0.9c1.1,0,2.1,0.4,3.1,1.2
			c-1.2,1.2-1.7,2.5-1.6,4c1.1-0.8,2.1-1.2,3.2-1.2c0.7,0,1.5,0.2,2.2,0.6c1.7,1.4,2.5,3.3,2.3,5.6h-0.3h-0.2h-1.5
			c-0.1,0-0.2,0-0.2,0c-0.2,0-0.4,0-0.6,0.1h-0.5l-1.6,0.1h-0.3c-0.5,0.1-0.9,0.1-1.3,0.1l-0.3,0.1l-0.3,0.1h-0.2l-1,0.2
			c-0.3,0.1-0.6,0.2-0.8,0.2l-0.3,0.1c-0.4,0.2-0.7,0.3-1.1,0.3c-0.9,0.4-1.6,0.7-2.2,0.8c-0.3,0.2-0.5,0.3-0.8,0.4l-0.1,0.1
			c-0.2,0.1-0.5,0.3-0.7,0.3c-0.3,0.3-0.6,0.5-0.9,0.6l-0.4,0.4l-0.2,0.1l-0.1,0.1c0,0.1-0.1,0.1-0.1,0.1c-0.4,0.5-0.8,0.9-1.2,1.1
			l-0.1,0.3l-0.1,0.1l-0.4,0.6l-0.1,0.2l-0.2,0.1l-0.6,1.4l-0.1,0.3l-0.1,0.2v0.2l-0.1,0.6c-0.1,0.3-0.2,0.5-0.2,0.8v0.6l-0.1,0.3
			v2.2c1,4.8,3.8,7.5,8.4,8.1c0.5,0,1.1,0.1,1.6,0.1c4.2,0,7.5-1.6,10-4.8h0.3c-0.2,3.1,0.9,4.7,3.3,4.8c1-0.1,1.8-0.2,2.3-0.4
			C206.7,434.1,203.6,422.3,196.6,418.3z M196.5,448.3c-1.5,0.9-3,1.4-4.5,1.4c-1,0-2-0.2-3-0.6c-2.6-1.6-3.4-3.9-2.5-6.9
			c0.2-0.8,0.5-1.5,1-2.1l0.4-0.4c0.4-0.4,0.8-0.8,1.1-1l0.2-0.1l0.1-0.1l0.1-0.1l0.1-0.1l0.1-0.1l0.1-0.1c0.3-0.1,0.5-0.3,0.7-0.3
			c0.4-0.2,0.7-0.3,1-0.3l0.1-0.1c0.4-0.1,0.7-0.2,1-0.2c0.6-0.2,1.1-0.3,1.6-0.3c0.3-0.1,0.6-0.1,0.8-0.1h0.3l0.3-0.1h0.3h0.2
			l0.2-0.1h0.3c0.1,0,0.2,0,0.3,0c0.3,0,0.6,0,0.9-0.1h0.6c0.1,0,0.3,0,0.4,0c0.4,0,0.8,0,1.1,0.1
			C200.6,442.6,199.4,446.4,196.5,448.3z M418.5,425.1c0,5.2-1.7,7.8-5.1,7.8c-0.5,0-1-0.1-1.6-0.2c-1.7-0.8-2.1-1.9-1.3-3.5
			c0.6-0.9,1.4-1.4,2.3-1.4c0.5,0,1.1,0.1,1.7,0.4l0.1-1c-0.2-1.9-1.2-3.2-3.1-3.9c-0.3,1.3-1.1,2.4-2.5,3.1l-0.1-0.5
			c0.2-1,0-1.9-0.5-2.9h-0.1c-1.2,0-2.3,0.4-3.4,1.3c-1.9,2-1.8,4.1,0.2,6.2c0.3,0.2,0.7,0.4,1.2,0.7c0.3,0.3,0.8,0.5,1.3,0.6
			l0.1,0.2h0.2c0.2,0.1,0.5,0.3,0.9,0.4l0.3,0.1l0.1,0.1h0.2l0.1,0.1l0.3,0.1l0.6,0.2l0.3,0.1l0.8,0.5c0.3,0.1,0.6,0.3,0.9,0.5
			l0.2,0.1c0.2,0.2,0.5,0.4,0.9,0.5l0.4,0.4l0.2,0.1c0.3,0.3,0.7,0.6,1.2,1c0.2,0.4,0.5,0.7,0.9,1.2l0.1,0.2l0.1,0.2l0.1,0.1
			l0.3,0.5l0.1,0.2c0.3,0.8,0.5,1.8,0.5,3c0.2,4.1-1.7,7.1-5.8,8.9l-0.3,0.1l0.1,1.5v0.3l0.1,0.2v0.2v0.3v0.3l0.1,0.3v0.4
			c-0.5,0-1,0-1.5,0c-12,0-16.8-4.3-14.2-12.9c0.2-0.3,0.4-0.8,0.6-1.4l0.5-0.6l0.1-0.2l0.1-0.2l0.2-0.1l0.1-0.2
			c1.1-1.2,2.2-1.8,3.5-1.8c0.9,0,1.9,0.3,2.9,1c1.6,1.6,1.3,3-0.8,4.2c-0.3,0.1-0.6,0.1-0.9,0.1c-0.8,0-1.5-0.3-2.2-0.9l-0.2,0.1
			c-0.3,1-0.3,2.1,0,3.2c0.3,1,1,1.7,2,2.1c0.6-1.2,1.6-2,3.1-2.3c-0.4,0.9-0.6,1.9-0.4,3l1.5,0.1h0.2c0.1,0,0.3,0,0.4,0
			c2.6,0,4.3-1.2,5.3-3.6c0.2-1.4-0.1-2.7-0.9-4c-0.3-0.4-0.8-0.8-1.4-1.1c0,0-0.1-0.1-0.2-0.1l-0.1-0.1l-0.1-0.2l-1.9-0.9l-1.2-0.4
			l-0.1-0.1l-0.1-0.1l-0.3-0.1l-0.3-0.1c-0.2,0-0.4-0.2-0.6-0.3c-0.2,0-0.4-0.1-0.7-0.3l-0.9-0.4l-1.1-0.8l-0.2-0.1l-0.1-0.1
			l-0.2-0.1l-0.1-0.1l-0.2-0.1l-0.2-0.1l-0.1-0.1c-0.2-0.3-0.4-0.5-0.8-0.8l-0.1-0.1V433l-0.3-0.5l-0.2-0.1l-0.5-1
			c-1.6-3.7-0.9-7,2.2-10c-0.1-0.4-0.2-0.8-0.5-1.4v-0.2l-0.1-0.3c0-0.1,0-0.1-0.1-0.2l-0.1-0.8l-0.1-0.3c0.2-0.1,0.5-0.2,0.9-0.2
			c0.1,0,0.3-0.1,0.6-0.2l0.6-0.2l0.6-0.1l1-0.2l0.4-0.1l0.8-0.1l0.7-0.1l0.2-0.1c0.1,0,0.1,0,0.2,0c0.2,0,0.3,0,0.4-0.1h0.1h0.1
			h0.1h0.1h0.1h0.1h0.1h0.1h0.1h0.1h0.1h0.1h0.1h0.1c0.5,0,0.9,0,1.3,0C414.9,417,418,419.7,418.5,425.1z M392.6,431.6v-0.2
			l-0.1-0.3v-0.2v-0.2c-0.1-0.2-0.1-0.4-0.1-0.6c-0.1-0.2-0.2-0.5-0.1-0.7c-1.9-7.6-6.4-11.4-13.5-11.4c-0.3,0-0.7,0-1,0l-0.3,0.1
			c-0.3,0-0.5,0-0.8,0.1h-0.2l-0.4,0.1l-0.2,0.1h-0.3c0,0-0.1,0.1-0.2,0.1l-0.6,0.1l-0.6,0.1c-0.3,0.2-0.6,0.3-0.9,0.3
			c-0.3,0.2-0.5,0.3-0.8,0.4l-0.2,0.1c-0.3,0.2-0.6,0.4-0.8,0.4l-0.1,0.1l-0.3,0.1c-0.5,0.4-0.9,0.7-1.3,0.8l-0.2,0.2l-0.3,0.2
			c0,0.1-0.1,0.1-0.1,0.1l-0.2,0.2l-0.2,0.1l-0.2,0.2l-0.5,0.5c-0.3,0.4-0.6,0.7-0.9,1c-2.9,4.4-4.2,9-3.8,13.8
			c1.3,10.1,6.9,15.2,16.9,15.2l-0.1,0.4c-0.3,0.6-0.5,1.2-0.6,1.7h0.3l0.3-0.1h0.3h0.2l0.2-0.1h0.2h0.3c0.4-0.1,0.8-0.2,1.1-0.2
			h0.1l0.2-0.1l1.4-0.3c7.7-2.2,9.8-6.1,6.3-11.7l-0.2-0.1l-0.1-0.1c-0.2-0.2-0.4-0.3-0.5-0.5l-0.5-0.3l-0.4-0.3
			c-0.4-0.1-0.8-0.1-1.1-0.1c-1.1,0-2.1,0.5-2.8,1.4c-0.3,1,0,1.8,0.8,2.2c0.4,0.2,0.8,0.3,1.2,0.3c0.6,0,1.2-0.3,1.7-0.8
			c0.4,1,0.4,1.9,0.1,2.8l-1.6,0.5c-0.5-0.4-1.1-0.6-1.7-0.6c-0.1,0-0.1,0-0.2,0l0,0h0.1l0.4,0.9c-1.8,0.3-3.4,0.5-4.9,0.5
			c-6.4,0-10.2-3.2-11.4-9.5c-0.1-0.4-0.1-0.7-0.1-0.9v-0.2v-0.9h0.6h0.2h0.2h2.4h0.5h0.2h1h0.5h0.5h0.5h0.4h0.5h0.3h1.3h0.8h0.3
			h0.3h0.3h0.3h0.3h0.3h0.2h0.3h1.3h0.3h0.2h1.5h0.3h0.2h1.4h1h0.2h1.3h0.2l0.9-0.1c0.6-0.1,1.1-0.3,1.4-0.5l0.8-0.9l0.1-0.6v-0.3
			v-0.2v-0.3v-0.2v-1V432l-0.1-0.3v-0.1H392.6z M386.8,432.1l-0.1,0.1c-0.8,0.3-1.5,0.5-2.1,0.5h-0.2l-0.8,0.1c-0.2,0-0.3,0-0.5,0
			c-0.3,0-0.6,0-0.8,0.1h-0.7c-0.5,0-0.9,0-1.3-0.1H380h-0.6c-0.5,0-0.9,0-1.2-0.1c-0.2,0-0.3,0-0.5,0c-0.3,0-0.6,0-0.8-0.1h-0.7
			h-0.4c-0.6-0.1-1-0.1-1.4-0.1c-0.1,0-0.2,0-0.2,0l-0.1-0.1h-0.6l-0.5-0.1h-0.4l-0.3-0.1c-0.4,0-0.7,0-0.9-0.1H371l-0.2-0.1
			c-0.6,0-1-0.1-1.4-0.1c0.5-4.7,2.8-7.9,6.8-9.4h0.2c0.7-0.1,1.2-0.2,1.7-0.3c5.3,0.3,8.3,2.9,9.3,7.7
			C387.4,430.9,387.2,431.6,386.8,432.1z M173.9,424.3c1.2,1.8,1.8,6.5,1.8,14.1v1.8v0.4v2.6v0.7v0.6v0.6v1.9v7.3v0.9l-0.1,0.7
			l-0.1,0.8c-0.3,0.7-0.5,1.5-0.8,2.5c-2,3.5-4.9,5.3-8.4,5.3c-1.8,0-3.9-0.5-6.1-1.4l-1.5-1.3l-0.1-0.3l-0.3-0.1
			c-0.1-0.3-0.2-0.6-0.4-0.9c-0.5-1.9-0.1-3.6,1.1-5.2l1.2-0.7c2.9,0.7,3.8,2.5,2.7,5.4c0.2,0,0.4,0,0.6,0c1.4,0,2.7-0.4,3.9-1.3
			l0.6-0.9l0.6-1c-1.5-0.4-2.7-1.4-3.6-3c0.4,0.1,0.9,0.2,1.3,0.2c1,0,1.9-0.3,2.9-1v-20.6l-0.3-1.8l-0.2-0.5
			c-0.1-0.8-0.3-1.6-0.7-2.5l-0.2-0.3l-0.1-0.3l-0.1-0.3c-1.7-2.1-4-3.2-7-3.2c-0.3,0-0.7,0-1,0c-3.2,0.9-5.6,3-7.2,6.3
			c-0.2,0.8-0.4,1.8-0.5,3v1.2v2.1v0.4v1.5v0.5v2.5v2v0.6v1.9v0.8v3.1v1.1v2v0.4v0.5v0.9c-2.6-1.2-4.8-3.3-6.7-6.3v-34.1l0.2-2.4
			v-0.4l0.1-0.3V410l0.1-0.3v-0.6l0.1-0.9c0.3-1,0.8-2.1,1.6-3.4l0.1-0.5l0.3-0.3l0.1-0.5c1.5-1.5,3.3-2.6,5.6-3.1
			c0.1,0,0.2,0,0.3,0c8.1,0,11.5,2.9,10.1,8.7c-0.4,0.5-1,1-1.8,1.7c-3.3-0.3-4.3-2.1-3-5.6c-0.4-0.1-0.8-0.1-1.2-0.1
			c-1.9,0-3.4,1-4.5,3c1.4,0.5,2.4,1.5,3,3.1c-0.7-0.3-1.4-0.4-2-0.4c-1.2,0-2.1,0.6-2.6,1.9v1.8v0.4v3.1v0.6v1.8v0.4v2.6v0.9
			c2.6-3.9,6.4-6.1,11.4-6.4C167.7,418.1,171.2,420.2,173.9,424.3z M135.7,418.8c-0.2,0-0.3,0-0.5,0c-1.4-0.2-2.6-1-3.4-2.3
			c0.2-2.4,1.3-3.6,3.1-3.6c0.6,0,1.3,0.1,2,0.4l0.4,0.2c0.4-2.3-0.5-4.1-2.5-5.6l-0.8-0.2c-0.4,1.6-1.5,2.8-3.2,3.5
			c0.3-1.2,0.2-2.5-0.2-3.8l-0.3-0.3c-1-0.1-2-0.2-3-0.2c-4.6,0-8.9,1.5-13,4.5c-3.8,3.5-5.9,8-6.4,13.6c-0.1,0.3-0.1,0.6-0.1,1
			c-0.1,0.3-0.1,0.7-0.1,1.2v1.7v0.3v0.3c0.1,0.3,0.1,0.6,0.1,1v0.3c0,0.3,0.1,0.6,0.1,1l0.1,0.3c0,0.5,0.1,1,0.3,1.6v0.4l0.1,0.2
			c0,0.2,0.1,0.4,0.2,0.7l0.2,0.8c0,0.3,0.1,0.5,0.3,0.8v0.3l0.3,0.5c1.5,4.3,4.6,7.5,9.2,9.5c2.6,1.1,5.3,1.6,8.2,1.6
			c2,0,4-0.3,6.2-0.8l1.6-0.1l0.8,0.1l1.6,0.7l0.3,0.1l0.1,0.2l0.7,0.3l1,0.8l0.3,0.1c0,0,0.1,0.1,0.2,0.2l0.2,0.2l0.3,0.1l0.9,0.9
			c-4.5,2-9.1,2.9-14.1,2.9c-3.1,0-6.3-0.4-9.6-1.2l-2.1-0.9l-0.4-0.1l-0.4-0.2c-0.4-0.1-0.9-0.4-1.4-0.8l-0.3-0.1l-0.3-0.1
			l-1.7-1.2l-1.1-0.8l-0.2-0.2l-1.4-1.3l-0.1-0.2l-0.3-0.2c-0.1-0.2-0.4-0.5-0.7-0.7c-0.2-0.4-0.5-0.9-1-1.4
			c-0.1-0.2-0.3-0.5-0.5-0.7l-0.2-0.3l-0.2-0.4c0-0.1-0.1-0.1-0.2-0.2l-0.4-0.9l-0.6-0.9c0,0,0-0.1-0.1-0.2c0-0.1,0-0.1-0.1-0.2
			c0-0.1,0-0.1-0.1-0.2c0,0,0-0.1-0.1-0.2l-0.8-2.1l-0.3-0.7c0-0.1,0-0.2-0.1-0.3c0-0.1,0-0.2-0.1-0.3c0-0.3-0.1-0.7-0.3-1.1
			l-0.3-1.6c0-0.2-0.1-0.4-0.1-0.8c-1.4-7.2-0.2-14.2,3.6-21.2c0.4-0.4,0.9-1,1.4-1.8l0.2-0.2l0.2-0.2l0.1-0.3l0.3-0.2l0.2-0.3
			l0.3-0.3l0.2-0.3l0.9-0.8l0.3-0.4c0.5-0.2,0.9-0.6,1.3-1c0.5-0.2,1-0.6,1.5-1.1l0.3-0.1l0.3-0.3c0.3-0.1,0.6-0.3,0.9-0.5l0.7-0.3
			l0.3-0.3c0.4-0.1,0.9-0.4,1.5-0.7l0.3-0.1l0.2-0.1l0.3-0.1c0.2-0.1,0.4-0.2,0.8-0.3l0.3-0.2c0.1,0,0.2,0,0.3-0.1l0.4-0.1l0.9-0.2
			l0.2-0.1c-0.1-0.3-0.4-0.6-0.8-0.9v-0.3c0.6,0,1.4-0.2,2.2-0.5h0.3h0.3l0.3-0.1c0.1,0,0.2,0,0.3-0.1h0.3c0.3,0,0.7-0.1,1.1-0.2
			h0.3c0.2,0,0.4,0,0.6-0.1h0.7h0.4c0.3-0.1,0.7-0.1,1.1-0.1c0.1,0,0.3,0,0.4,0h0.3c0.1,0,0.2,0,0.3-0.1l1.8,0.1h0.7h0.4h0.3
			l0.3,0.1h0.3c0.3,0.1,0.6,0.1,1,0.1l0.4,0.1l0.3,0.1h0.4l0.4,0.1l0.4,0.1l1.6,0.5l0.3,0.1l2.2,1l0.6,0.5l0.6,0.4l0.1,0.2l0.3,0.1
			l0.5,0.5c2.8,4,2.9,8.3,0.2,12.8C139,418.1,137.6,418.8,135.7,418.8z"/>
	</g>
	<g>
		<path class="st0" d="M487.6,514.7H112.4c-6.5,0-11.7-5.2-11.7-11.7v-18c0-6.5,5.2-11.7,11.7-11.7h375.2c6.5,0,11.7,5.2,11.7,11.7
			v18C499.3,509.5,494.1,514.7,487.6,514.7z"/>
		<g>
			<path class="st1" d="M139.3,496.9l4.4,1.4c-0.7,2.4-1.8,4.2-3.3,5.4c-1.6,1.2-3.5,1.8-5.9,1.8c-3,0-5.4-1-7.3-3
				c-1.9-2-2.9-4.8-2.9-8.3c0-3.7,1-6.6,2.9-8.6c1.9-2.1,4.4-3.1,7.6-3.1c2.7,0,4.9,0.8,6.6,2.4c1,1,1.8,2.3,2.3,4.1l-4.5,1.1
				c-0.3-1.2-0.8-2.1-1.6-2.7c-0.8-0.7-1.9-1-3.1-1c-1.7,0-3,0.6-4,1.8c-1,1.2-1.5,3.1-1.5,5.8c0,2.8,0.5,4.8,1.5,6s2.3,1.8,4,1.8
				c1.2,0,2.2-0.4,3.1-1.1C138.3,499.8,138.9,498.6,139.3,496.9z"/>
			<path class="st1" d="M159.1,494.1c0-2.3,0.3-4.2,1-5.7c0.5-1.1,1.2-2.2,2.1-3.1c0.9-0.9,1.8-1.6,2.9-2c1.4-0.6,3-0.9,4.8-0.9
				c3.3,0,5.9,1,7.9,3.1c2,2,3,4.9,3,8.5s-1,6.4-2.9,8.4s-4.6,3-7.8,3c-3.3,0-6-1-7.9-3C160.1,500.5,159.1,497.7,159.1,494.1z
				 M163.7,494c0,2.5,0.6,4.4,1.7,5.7c1.2,1.3,2.6,2,4.4,2s3.3-0.6,4.4-1.9c1.2-1.3,1.7-3.2,1.7-5.8c0-2.6-0.6-4.5-1.7-5.7
				c-1.1-1.3-2.6-1.9-4.5-1.9s-3.4,0.6-4.5,1.9C164.3,489.5,163.7,491.4,163.7,494z"/>
			<path class="st1" d="M196.7,505.1v-22.3h9.5c2.4,0,4.1,0.2,5.2,0.6c1.1,0.4,1.9,1.1,2.6,2.1c0.6,1,1,2.2,1,3.5
				c0,1.7-0.5,3.1-1.5,4.1c-1,1.1-2.5,1.8-4.4,2.1c1,0.6,1.8,1.2,2.4,1.9c0.6,0.7,1.5,1.9,2.6,3.6l2.7,4.4h-5.4l-3.3-4.9
				c-1.2-1.7-1.9-2.8-2.4-3.3s-0.9-0.8-1.4-0.9c-0.5-0.2-1.2-0.3-2.3-0.3h-0.9v9.3L196.7,505.1L196.7,505.1z M201.2,492.3h3.3
				c2.2,0,3.5-0.1,4-0.3c0.5-0.2,1-0.5,1.3-0.9s0.5-1,0.5-1.7c0-0.8-0.2-1.4-0.6-1.8c-0.4-0.5-1-0.8-1.7-0.9
				c-0.4-0.1-1.5-0.1-3.3-0.1h-3.5V492.3z"/>
			<path class="st1" d="M231.6,505.1v-22.3h7.2c2.7,0,4.5,0.1,5.4,0.3c1.3,0.3,2.3,1.1,3.2,2.2s1.3,2.6,1.3,4.3
				c0,1.4-0.2,2.5-0.7,3.5c-0.5,0.9-1.1,1.7-1.9,2.2c-0.8,0.5-1.5,0.9-2.3,1.1c-1.1,0.2-2.6,0.3-4.7,0.3h-2.9v8.4H231.6z
				 M236.2,486.6v6.3h2.5c1.8,0,3-0.1,3.6-0.4c0.6-0.2,1.1-0.6,1.4-1.1c0.3-0.5,0.5-1.1,0.5-1.7c0-0.8-0.2-1.5-0.7-2s-1.1-0.9-1.8-1
				c-0.5-0.1-1.6-0.2-3.2-0.2h-2.3V486.6z"/>
			<path class="st1" d="M264,494.1c0-2.3,0.3-4.2,1-5.7c0.5-1.1,1.2-2.2,2.1-3.1s1.8-1.6,2.9-2c1.4-0.6,3-0.9,4.8-0.9
				c3.3,0,5.9,1,7.9,3.1c2,2,3,4.9,3,8.5s-1,6.4-2.9,8.4c-2,2-4.6,3-7.8,3c-3.3,0-6-1-7.9-3C265,500.5,264,497.7,264,494.1z
				 M268.6,494c0,2.5,0.6,4.4,1.7,5.7c1.2,1.3,2.6,2,4.4,2s3.3-0.6,4.4-1.9c1.2-1.3,1.7-3.2,1.7-5.8c0-2.6-0.6-4.5-1.7-5.7
				c-1.1-1.3-2.6-1.9-4.5-1.9s-3.4,0.6-4.5,1.9C269.2,489.5,268.6,491.4,268.6,494z"/>
			<path class="st1" d="M301.6,505.1v-22.3h9.5c2.4,0,4.1,0.2,5.2,0.6s1.9,1.1,2.6,2.1c0.6,1,1,2.2,1,3.5c0,1.7-0.5,3.1-1.5,4.1
				c-1,1.1-2.5,1.8-4.4,2.1c1,0.6,1.8,1.2,2.4,1.9c0.6,0.7,1.5,1.9,2.6,3.6l2.7,4.4h-5.4l-3.3-4.9c-1.2-1.7-1.9-2.8-2.4-3.3
				c-0.4-0.5-0.9-0.8-1.4-0.9c-0.5-0.2-1.2-0.3-2.3-0.3H306v9.3L301.6,505.1L301.6,505.1z M306.1,492.3h3.3c2.2,0,3.5-0.1,4-0.3
				c0.5-0.2,1-0.5,1.3-0.9s0.5-1,0.5-1.7c0-0.8-0.2-1.4-0.6-1.8c-0.4-0.5-1-0.8-1.7-0.9c-0.4-0.1-1.5-0.1-3.3-0.1h-3.5L306.1,492.3
				L306.1,492.3z"/>
			<path class="st1" d="M356.7,505.1h-4.9l-1.9-5.1H341l-1.8,5.1h-4.8l8.7-22.3h4.8L356.7,505.1z M348.4,496.3l-3.1-8.3l-3,8.3
				H348.4z"/>
			<path class="st1" d="M374.2,505.1v-18.5h-6.6v-3.8h17.7v3.8h-6.6v18.5H374.2z"/>
			<path class="st1" d="M400.5,505.1v-22.3h4.5v22.3H400.5z"/>
			<path class="st1" d="M427.5,505.1l-8-22.3h4.9l5.6,16.5l5.5-16.5h4.8l-8,22.3H427.5z"/>
			<path class="st1" d="M454.1,494.1c0-2.3,0.3-4.2,1-5.7c0.5-1.1,1.2-2.2,2.1-3.1s1.8-1.6,2.9-2c1.4-0.6,3-0.9,4.8-0.9
				c3.3,0,5.9,1,7.9,3.1c2,2,3,4.9,3,8.5s-1,6.4-2.9,8.4c-2,2-4.6,3-7.8,3c-3.3,0-6-1-7.9-3C455.1,500.5,454.1,497.7,454.1,494.1z
				 M458.8,494c0,2.5,0.6,4.4,1.7,5.7c1.2,1.3,2.6,2,4.4,2s3.3-0.6,4.4-1.9c1.2-1.3,1.7-3.2,1.7-5.8c0-2.6-0.6-4.5-1.7-5.7
				c-1.1-1.3-2.6-1.9-4.5-1.9s-3.4,0.6-4.5,1.9C459.3,489.5,458.8,491.4,458.8,494z"/>
		</g>
	</g>
</g>
</svg>
